<?xml version="1.0" encoding="utf-8" ?>
<svg xmlns="http://www.w3.org/2000/svg" xmlns:xlink="http://www.w3.org/1999/xlink" width="1024" height="1024">
	<path fill="#FCFDFD" transform="scale(2 2)" d="M259.817 107.852C265.555 88.0803 276.333 72.7203 298.853 70.0137C304.641 69.318 310.705 69.5467 316.533 69.5468L420.475 69.5568L420.442 122.183C420.429 124.069 420.221 126.189 420.475 128.051L430.724 128.032C440.53 127.981 450.757 128.59 451.007 140.977C451.387 159.805 451.002 178.721 451.002 197.56L451.023 393.109C451.173 417.355 448.816 417.686 423.403 417.647L324.929 417.649C313.981 417.65 303.017 417.792 292.07 417.65C278.293 440.836 244.929 444.918 226.714 425.065C224.656 422.821 223.126 420.175 221.14 417.876L220.942 417.65C209.098 417.338 197.156 417.646 185.303 417.647L87.5049 417.656C80.1403 417.658 70.8984 419.231 64.996 413.729C58.625 407.789 60.9871 388.619 60.9874 380.35L60.9936 207.914C60.9964 185.394 61.4621 162.764 60.8411 140.256C60.433 125.465 79.015 128.028 88.1463 128.051C89.2921 127.949 90.4736 128.029 91.6238 128.051L91.6236 99.3862C91.6179 94.2183 91.2649 88.8526 91.7347 83.7136L91.7752 83.2948L91.5157 82.99L91.8065 83.1809C91.9952 81.0002 102.091 81.9666 103.929 81.977C106.575 78.4835 104.202 70.318 105.376 69.8785L104.933 70.011L106.054 70.3136L105.799 69.8769C111.26 69.9855 116.696 69.5375 122.154 69.5452L186.534 69.5542C196.709 69.5605 214.363 68.8006 224.012 70.9953C237.686 74.1053 252.246 86.3754 257.049 99.6764C257.956 102.19 258.494 105.597 259.817 107.852Z"/>
	<path fill="#BCD4ED" transform="scale(2 2)" d="M259.817 107.852C265.555 88.0803 276.333 72.7203 298.853 70.0137C304.641 69.318 310.705 69.5467 316.533 69.5468L420.475 69.5568L420.442 122.183C420.429 124.069 420.221 126.189 420.475 128.051C420.323 134.684 420.489 141.339 420.475 147.975L420.475 378.191L324.382 378.186C302.294 378.172 286.827 378.283 270.129 394.95C265.928 399.143 263.46 404.14 259.817 408.688L259.817 310.457C259.817 307.349 260.174 287.798 259.817 286.841C249.543 286.351 239.358 278.365 239.464 267.471C238.794 264.115 238.591 261.658 239.464 258.308C242.865 249.649 247.758 243.279 257.481 241.193C257.791 226.511 257.482 211.755 257.481 197.065C239.948 188.272 220.325 183.623 203.218 173.968Q204.751 172.4 206.034 170.622Q207.317 168.844 208.321 166.894C225.535 174.118 242.854 181.087 259.817 188.891L259.838 117.062C259.859 114.036 260.081 110.862 259.817 107.852Z"/>
	<path fill="#BCD4ED" transform="scale(2 2)" d="M320.974 164.642Q321.887 166.801 323.129 168.789Q324.372 170.777 325.914 172.543Q326.757 173.508 327.68 174.397Q328.604 175.285 329.601 176.09Q330.598 176.895 331.661 177.61Q332.724 178.325 333.846 178.945Q334.967 179.565 336.138 180.085Q337.309 180.605 338.521 181.022Q339.733 181.438 340.976 181.748Q342.219 182.058 343.485 182.258Q345.651 182.601 347.845 182.619Q350.038 182.637 352.21 182.33C352.014 191.504 352.036 200.686 351.998 209.862Q349.889 209.59 347.763 209.621Q345.636 209.651 343.536 209.984Q342.804 210.1 342.079 210.252Q341.355 210.404 340.638 210.592Q339.922 210.78 339.215 211.003Q338.509 211.227 337.815 211.485Q337.121 211.743 336.44 212.036Q335.76 212.328 335.095 212.654Q334.429 212.98 333.781 213.338Q333.133 213.697 332.504 214.087Q331.874 214.478 331.265 214.899Q330.656 215.32 330.068 215.771Q329.48 216.222 328.916 216.702Q328.351 217.181 327.812 217.688Q327.272 218.196 326.758 218.729Q326.244 219.262 325.757 219.82Q325.27 220.379 324.811 220.96Q324.353 221.542 323.924 222.146Q323.495 222.75 323.097 223.374Q322.698 223.999 322.331 224.642Q321.964 225.286 321.63 225.947Q321.295 226.608 320.994 227.284Q320.693 227.961 320.426 228.652Q320.159 229.343 319.926 230.046Q319.694 230.749 319.497 231.463Q319.3 232.177 319.138 232.9Q318.977 233.623 318.852 234.353Q318.726 235.083 318.638 235.819Q318.549 236.554 318.497 237.293Q318.444 238.032 318.429 238.773Q318.414 239.513 318.435 240.254Q318.457 240.994 318.515 241.732Q318.574 242.471 318.669 243.205Q318.764 243.94 318.895 244.669C307.586 249.056 294.594 253.211 283.803 258.308C278.105 249.272 278.338 245.154 265.74 241.193C263.769 241.134 261.789 241.181 259.817 241.193C259.043 241.261 258.256 241.21 257.481 241.193C257.791 226.511 257.482 211.755 257.481 197.065C239.948 188.272 220.325 183.623 203.218 173.968Q204.751 172.4 206.034 170.622Q207.317 168.844 208.321 166.894C225.535 174.118 242.854 181.087 259.817 188.891C262.822 189.531 270.624 184.878 273.58 183.663L296.834 174.294C304.857 170.981 312.76 167.47 320.974 164.642Z"/>
	<path fill="#3774D0" transform="scale(2 2)" d="M320.974 164.642Q321.887 166.801 323.129 168.789Q324.372 170.777 325.914 172.543L300.834 182.707C289.096 187.368 277.261 191.88 265.74 197.065L265.74 241.193C263.769 241.134 261.789 241.181 259.817 241.193C259.043 241.261 258.256 241.21 257.481 241.193C257.791 226.511 257.482 211.755 257.481 197.065C239.948 188.272 220.325 183.623 203.218 173.968Q204.751 172.4 206.034 170.622Q207.317 168.844 208.321 166.894C225.535 174.118 242.854 181.087 259.817 188.891C262.822 189.531 270.624 184.878 273.58 183.663L296.834 174.294C304.857 170.981 312.76 167.47 320.974 164.642Z"/>
	<path fill="#3774D0" transform="scale(2 2)" d="M343.485 182.258Q345.651 182.601 347.845 182.619Q350.038 182.637 352.21 182.33C352.014 191.504 352.036 200.686 351.998 209.862Q349.889 209.59 347.763 209.621Q345.636 209.651 343.536 209.984C343.272 207.093 343.508 203.964 343.504 201.051L343.485 182.258Z"/>
	<path fill="#2498F5" transform="scale(2 2)" d="M351.998 209.862Q352.632 209.944 353.262 210.053Q353.892 210.162 354.517 210.297Q355.142 210.433 355.761 210.596Q356.379 210.758 356.99 210.947Q357.601 211.136 358.203 211.351Q358.805 211.566 359.398 211.807Q359.99 212.048 360.572 212.314Q361.153 212.58 361.723 212.87Q362.293 213.161 362.849 213.476Q363.406 213.791 363.948 214.129Q364.491 214.468 365.018 214.829Q365.546 215.19 366.058 215.574Q366.569 215.958 367.064 216.363Q367.558 216.769 368.035 217.195Q368.512 217.621 368.97 218.068Q369.428 218.514 369.866 218.979Q370.304 219.445 370.722 219.929Q371.14 220.413 371.537 220.914Q371.934 221.416 372.309 221.934Q372.684 222.452 373.036 222.986Q373.388 223.519 373.717 224.068Q374.047 224.616 374.352 225.178Q374.657 225.74 374.938 226.314Q375.219 226.889 375.475 227.475Q375.73 228.061 375.961 228.657Q376.191 229.254 376.396 229.86Q376.601 230.465 376.779 231.079Q376.958 231.694 377.11 232.315Q377.261 232.936 377.387 233.563Q377.512 234.19 377.61 234.822Q377.708 235.454 377.779 236.089Q377.85 236.725 377.893 237.363Q377.937 238.001 377.953 238.64Q377.969 239.28 377.957 239.919Q377.946 240.558 377.907 241.197Q377.868 241.835 377.802 242.471Q377.735 243.107 377.642 243.74Q377.548 244.372 377.428 245Q377.307 245.628 377.16 246.25Q377.012 246.873 376.838 247.488Q376.664 248.103 376.464 248.711Q376.264 249.318 376.038 249.916Q375.811 250.514 375.56 251.102Q375.308 251.69 375.031 252.267Q374.755 252.843 374.454 253.407Q374.152 253.971 373.827 254.522Q373.502 255.073 373.154 255.609Q372.805 256.145 372.434 256.666Q372.063 257.187 371.67 257.691Q371.277 258.195 370.862 258.682Q370.448 259.169 370.013 259.638Q369.578 260.107 369.123 260.556Q368.668 261.006 368.194 261.435Q367.721 261.865 367.229 262.274Q366.738 262.683 366.229 263.07Q365.72 263.458 365.195 263.823Q364.67 264.188 364.13 264.531Q363.59 264.873 363.036 265.192Q362.481 265.511 361.914 265.806Q361.346 266.1 360.767 266.37Q360.187 266.641 359.596 266.886Q359.006 267.13 358.405 267.35Q357.804 267.569 357.195 267.763Q356.585 267.956 355.968 268.123Q355.351 268.29 354.727 268.43Q354.103 268.571 353.474 268.684Q352.844 268.798 352.211 268.884Q351.577 268.97 350.94 269.029Q350.304 269.088 349.665 269.12Q349.026 269.152 348.387 269.156Q347.747 269.16 347.108 269.137Q346.469 269.113 345.832 269.063Q345.194 269.012 344.56 268.934Q343.925 268.856 343.294 268.751Q342.663 268.645 342.038 268.513Q341.412 268.381 340.793 268.222Q340.173 268.063 339.561 267.878Q338.949 267.692 338.346 267.481Q337.742 267.269 337.148 267.032Q336.555 266.795 335.971 266.532Q335.388 266.27 334.817 265.982Q334.246 265.695 333.687 265.383Q333.129 265.072 332.584 264.737Q332.04 264.401 331.51 264.043Q330.981 263.685 330.467 263.304Q329.953 262.923 329.456 262.521Q328.959 262.118 328.48 261.695Q328.001 261.271 327.54 260.828Q327.08 260.384 326.639 259.921Q326.198 259.458 325.777 258.976Q325.356 258.495 324.956 257.996Q324.556 257.497 324.179 256.981Q323.801 256.465 323.445 255.933Q323.09 255.402 322.757 254.855Q322.425 254.309 322.117 253.749Q321.808 253.189 321.524 252.616Q320.589 250.732 319.929 248.735Q319.268 246.739 318.895 244.669Q318.764 243.94 318.669 243.205Q318.574 242.471 318.515 241.732Q318.457 240.994 318.435 240.254Q318.414 239.513 318.429 238.773Q318.444 238.032 318.497 237.293Q318.549 236.554 318.638 235.819Q318.726 235.083 318.852 234.353Q318.977 233.623 319.138 232.9Q319.3 232.177 319.497 231.463Q319.694 230.749 319.926 230.046Q320.159 229.343 320.426 228.652Q320.693 227.961 320.994 227.284Q321.295 226.608 321.63 225.947Q321.964 225.286 322.331 224.642Q322.698 223.999 323.097 223.374Q323.495 222.75 323.924 222.146Q324.353 221.542 324.811 220.96Q325.27 220.379 325.757 219.82Q326.244 219.262 326.758 218.729Q327.272 218.196 327.812 217.688Q328.351 217.181 328.916 216.702Q329.48 216.222 330.068 215.771Q330.656 215.32 331.265 214.899Q331.874 214.478 332.504 214.087Q333.133 213.697 333.781 213.338Q334.429 212.98 335.095 212.654Q335.76 212.328 336.44 212.036Q337.121 211.743 337.815 211.485Q338.509 211.227 339.215 211.003Q339.922 210.78 340.638 210.592Q341.355 210.404 342.079 210.252Q342.804 210.1 343.536 209.984Q345.636 209.651 347.763 209.621Q349.889 209.59 351.998 209.862Z"/>
	<path fill="#FCFDFD" transform="scale(2 2)" d="M346.008 220.65Q346.464 220.599 346.923 220.57Q347.381 220.541 347.84 220.535Q348.299 220.528 348.758 220.544Q349.217 220.56 349.674 220.599Q350.132 220.637 350.587 220.698Q351.042 220.759 351.493 220.842Q351.945 220.925 352.392 221.03Q352.839 221.135 353.28 221.262Q353.722 221.389 354.156 221.537Q354.591 221.685 355.017 221.854Q355.444 222.023 355.862 222.213Q356.28 222.403 356.688 222.614Q357.097 222.824 357.494 223.054Q357.892 223.284 358.277 223.533Q358.663 223.782 359.036 224.049Q359.409 224.317 359.769 224.603Q360.128 224.888 360.473 225.191Q360.818 225.494 361.148 225.813Q361.478 226.132 361.792 226.468Q362.106 226.803 362.403 227.153Q362.7 227.503 362.98 227.867Q363.259 228.231 363.521 228.609Q363.782 228.986 364.025 229.376Q364.268 229.766 364.491 230.167Q364.714 230.568 364.918 230.98Q365.121 231.391 365.304 231.812Q365.487 232.233 365.649 232.663Q365.811 233.092 365.952 233.529Q366.093 233.966 366.213 234.41Q366.332 234.853 366.43 235.302Q366.528 235.75 366.603 236.203Q366.679 236.656 366.732 237.112Q366.785 237.568 366.816 238.026Q366.847 238.484 366.856 238.943Q366.864 239.402 366.85 239.861Q366.836 240.32 366.8 240.778Q366.763 241.236 366.705 241.691Q366.646 242.146 366.565 242.598Q366.484 243.05 366.381 243.498Q366.278 243.945 366.153 244.387Q366.028 244.829 365.882 245.264Q365.736 245.699 365.568 246.127Q365.401 246.554 365.213 246.973Q365.025 247.392 364.816 247.801Q364.608 248.211 364.38 248.609Q364.152 249.007 363.905 249.394Q363.657 249.781 363.391 250.155Q363.125 250.53 362.841 250.89Q362.557 251.251 362.256 251.598Q361.955 251.944 361.637 252.275Q361.319 252.607 360.985 252.922Q360.652 253.238 360.303 253.536Q359.954 253.835 359.591 254.116Q359.228 254.397 358.852 254.661Q358.476 254.924 358.087 255.168Q357.698 255.413 357.298 255.638Q356.898 255.863 356.487 256.068Q356.077 256.273 355.656 256.458Q355.236 256.643 354.807 256.807Q354.379 256.971 353.942 257.114Q353.506 257.257 353.063 257.379Q352.62 257.5 352.172 257.6Q351.724 257.699 351.271 257.777Q350.819 257.855 350.363 257.91Q349.905 257.966 349.444 257.999Q348.983 258.032 348.522 258.042Q348.06 258.052 347.598 258.04Q347.137 258.028 346.676 257.993Q346.216 257.957 345.758 257.9Q345.3 257.842 344.845 257.762Q344.39 257.682 343.94 257.579Q343.49 257.477 343.045 257.352Q342.6 257.228 342.162 257.081Q341.724 256.935 341.294 256.768Q340.864 256.6 340.442 256.411Q340.021 256.223 339.609 256.014Q339.197 255.805 338.796 255.576Q338.395 255.346 338.006 255.098Q337.617 254.849 337.241 254.582Q336.864 254.315 336.501 254.029Q336.138 253.743 335.79 253.44Q335.442 253.137 335.109 252.817Q334.776 252.497 334.459 252.161Q334.142 251.826 333.842 251.475Q333.542 251.123 333.259 250.758Q332.977 250.393 332.713 250.014Q332.449 249.635 332.204 249.243Q331.959 248.852 331.734 248.449Q331.508 248.046 331.303 247.633Q331.097 247.219 330.913 246.796Q330.728 246.373 330.564 245.941Q330.4 245.509 330.258 245.07Q330.116 244.63 329.995 244.185Q329.875 243.739 329.776 243.288Q329.678 242.837 329.602 242.381Q329.526 241.926 329.472 241.467Q329.418 241.008 329.387 240.548Q329.356 240.087 329.348 239.625Q329.34 239.164 329.354 238.702Q329.369 238.24 329.406 237.78Q329.443 237.32 329.503 236.862Q329.563 236.404 329.645 235.95Q329.727 235.495 329.832 235.046Q329.936 234.596 330.063 234.152Q330.189 233.708 330.337 233.27Q330.486 232.833 330.655 232.403Q330.825 231.974 331.015 231.553Q331.206 231.133 331.416 230.722Q331.627 230.311 331.858 229.911Q332.089 229.511 332.339 229.123Q332.59 228.735 332.859 228.36Q333.128 227.985 333.415 227.623Q333.702 227.261 334.007 226.914Q334.312 226.567 334.633 226.236Q334.954 225.904 335.292 225.589Q335.629 225.273 335.981 224.975Q336.334 224.677 336.7 224.396Q337.067 224.115 337.447 223.853Q337.827 223.591 338.22 223.347Q338.612 223.104 339.016 222.88Q339.42 222.657 339.834 222.453Q340.249 222.25 340.673 222.067Q341.097 221.884 341.529 221.722Q341.962 221.56 342.402 221.42Q342.842 221.28 343.288 221.161Q343.734 221.043 344.186 220.946Q344.638 220.85 345.093 220.776Q345.549 220.702 346.008 220.65Z"/>
	<path fill="#2498F5" transform="scale(2 2)" d="M320.974 164.642Q320.751 164.115 320.549 163.58Q320.348 163.046 320.166 162.503Q319.985 161.961 319.826 161.412Q319.666 160.863 319.527 160.308Q319.389 159.753 319.272 159.194Q319.155 158.634 319.06 158.07Q318.965 157.506 318.892 156.939Q318.819 156.372 318.769 155.802Q318.718 155.233 318.689 154.662Q318.66 154.091 318.654 153.519Q318.647 152.947 318.663 152.376Q318.678 151.804 318.716 151.234Q318.754 150.663 318.814 150.094Q318.874 149.526 318.956 148.96Q319.038 148.394 319.142 147.832Q319.246 147.27 319.371 146.712Q319.497 146.154 319.644 145.601Q319.792 145.049 319.96 144.503Q320.129 143.956 320.318 143.417Q320.508 142.877 320.719 142.346Q320.929 141.814 321.16 141.291Q321.391 140.768 321.642 140.254Q321.893 139.741 322.164 139.237Q322.435 138.734 322.725 138.241Q323.015 137.748 323.324 137.267Q323.633 136.786 323.961 136.318Q324.289 135.849 324.634 135.393Q324.98 134.938 325.343 134.496Q325.706 134.054 326.085 133.627Q326.465 133.199 326.861 132.787Q327.257 132.375 327.669 131.978Q328.081 131.581 328.508 131.201Q328.935 130.821 329.376 130.457Q329.818 130.094 330.273 129.748Q330.728 129.402 331.196 129.073Q331.665 128.745 332.145 128.436Q332.626 128.126 333.118 127.835Q333.611 127.544 334.114 127.273Q334.617 127.001 335.131 126.75Q335.644 126.498 336.167 126.266Q336.69 126.035 337.221 125.824Q337.753 125.613 338.292 125.422Q338.831 125.232 339.377 125.063Q339.923 124.894 340.476 124.746Q341.028 124.598 341.586 124.471Q342.143 124.345 342.705 124.241Q343.268 124.136 343.833 124.053Q344.399 123.971 344.968 123.91Q345.536 123.849 346.107 123.811Q346.677 123.772 347.249 123.756Q347.821 123.74 348.392 123.746Q348.964 123.751 349.535 123.78Q350.106 123.808 350.676 123.858Q351.245 123.908 351.813 123.98Q352.38 124.053 352.944 124.147Q353.508 124.241 354.068 124.357Q354.628 124.474 355.183 124.611Q355.738 124.749 356.287 124.908Q356.836 125.068 357.378 125.248Q357.921 125.428 358.456 125.63Q358.991 125.831 359.518 126.053Q360.045 126.275 360.563 126.517Q361.081 126.76 361.589 127.022Q362.097 127.284 362.595 127.566Q363.093 127.848 363.579 128.149Q364.065 128.449 364.539 128.769Q365.013 129.089 365.475 129.426Q365.936 129.764 366.384 130.119Q366.832 130.475 367.266 130.847Q367.7 131.22 368.119 131.609Q368.538 131.998 368.942 132.403Q369.345 132.808 369.733 133.228Q370.12 133.648 370.491 134.084Q370.862 134.519 371.216 134.968Q371.57 135.417 371.906 135.88Q372.242 136.342 372.56 136.818Q372.878 137.293 373.177 137.78Q373.476 138.268 373.756 138.766Q374.036 139.265 374.297 139.774Q374.557 140.283 374.798 140.802Q375.038 141.32 375.258 141.848Q375.478 142.376 375.678 142.912Q375.877 143.447 376.056 143.991Q376.234 144.534 376.392 145.084Q376.549 145.633 376.685 146.189Q376.821 146.744 376.935 147.305Q377.049 147.865 377.141 148.429Q377.234 148.993 377.304 149.561Q377.374 150.128 377.423 150.698Q377.471 151.268 377.497 151.839Q377.523 152.41 377.527 152.982Q377.531 153.554 377.512 154.125Q377.494 154.697 377.454 155.267Q377.413 155.838 377.35 156.406Q377.288 156.974 377.203 157.54Q377.119 158.105 377.012 158.667Q376.905 159.229 376.777 159.786Q376.649 160.343 376.499 160.895Q376.349 161.447 376.178 161.992Q376.007 162.538 375.815 163.077Q375.623 163.615 375.41 164.146Q375.197 164.676 374.963 165.198Q374.73 165.72 374.476 166.233Q374.223 166.745 373.95 167.248Q373.677 167.75 373.384 168.241Q373.092 168.733 372.78 169.212Q372.469 169.692 372.139 170.159Q371.809 170.626 371.462 171.08Q371.114 171.534 370.749 171.974Q370.384 172.414 370.002 172.84Q369.62 173.265 369.222 173.676Q368.824 174.086 368.411 174.481Q367.997 174.876 367.568 175.254Q367.139 175.632 366.696 175.994Q366.253 176.355 365.797 176.699Q365.34 177.043 364.87 177.369Q364.4 177.695 363.918 178.002Q363.436 178.31 362.942 178.598Q362.449 178.887 361.944 179.156Q361.44 179.425 360.925 179.674Q360.41 179.924 359.887 180.153Q359.363 180.382 358.83 180.59Q358.298 180.799 357.758 180.987Q357.218 181.175 356.671 181.341Q356.124 181.508 355.571 181.653Q355.018 181.799 354.46 181.922Q353.901 182.046 353.339 182.148Q352.776 182.25 352.21 182.33Q350.038 182.637 347.845 182.619Q345.651 182.601 343.485 182.258Q342.219 182.058 340.976 181.748Q339.733 181.438 338.521 181.022Q337.309 180.605 336.138 180.085Q334.967 179.565 333.846 178.945Q332.724 178.325 331.661 177.61Q330.598 176.895 329.601 176.09Q328.604 175.285 327.68 174.397Q326.757 173.508 325.914 172.543Q324.372 170.777 323.129 168.789Q321.887 166.801 320.974 164.642Z"/>
	<path fill="#FCFDFD" transform="scale(2 2)" d="M346.412 134.854Q346.865 134.813 347.32 134.795Q347.775 134.776 348.23 134.78Q348.686 134.784 349.14 134.811Q349.594 134.837 350.047 134.886Q350.5 134.935 350.949 135.005Q351.399 135.076 351.845 135.169Q352.29 135.262 352.731 135.377Q353.172 135.491 353.606 135.627Q354.04 135.764 354.467 135.921Q354.895 136.078 355.314 136.257Q355.732 136.435 356.142 136.633Q356.552 136.832 356.951 137.05Q357.351 137.269 357.739 137.507Q358.127 137.744 358.503 138.001Q358.879 138.258 359.242 138.532Q359.605 138.807 359.954 139.099Q360.303 139.392 360.637 139.701Q360.971 140.01 361.29 140.335Q361.609 140.66 361.911 141.001Q362.213 141.341 362.498 141.696Q362.783 142.051 363.051 142.419Q363.318 142.788 363.567 143.169Q363.816 143.55 364.046 143.943Q364.276 144.336 364.486 144.739Q364.696 145.143 364.887 145.557Q365.077 145.97 365.246 146.393Q365.416 146.815 365.565 147.246Q365.713 147.676 365.841 148.113Q365.968 148.55 366.074 148.993Q366.179 149.436 366.263 149.883Q366.347 150.33 366.409 150.781Q366.471 151.232 366.51 151.686Q366.549 152.14 366.567 152.594Q366.584 153.049 366.578 153.505Q366.573 153.96 366.546 154.414Q366.518 154.869 366.468 155.321Q366.418 155.773 366.346 156.223Q366.274 156.672 366.18 157.118Q366.086 157.563 365.97 158.004Q365.854 158.444 365.716 158.878Q365.579 159.312 365.421 159.738Q365.262 160.165 365.083 160.584Q364.903 161.002 364.704 161.411Q364.504 161.82 364.284 162.219Q364.065 162.618 363.826 163.005Q363.587 163.393 363.329 163.768Q363.072 164.143 362.796 164.506Q362.52 164.868 362.227 165.216Q361.934 165.564 361.624 165.897Q361.314 166.231 360.987 166.549Q360.661 166.866 360.32 167.168Q359.979 167.469 359.623 167.753Q359.268 168.037 358.898 168.304Q358.529 168.57 358.147 168.818Q357.766 169.066 357.372 169.294Q356.978 169.523 356.574 169.732Q356.17 169.942 355.756 170.131Q355.342 170.32 354.919 170.488Q354.496 170.657 354.065 170.804Q353.634 170.952 353.197 171.078Q352.76 171.204 352.316 171.308Q351.873 171.413 351.426 171.495Q350.978 171.578 350.527 171.638Q350.076 171.699 349.622 171.737Q349.17 171.775 348.717 171.791Q348.263 171.807 347.81 171.8Q347.356 171.794 346.903 171.766Q346.451 171.737 346 171.686Q345.549 171.636 345.101 171.563Q344.654 171.49 344.21 171.396Q343.766 171.301 343.328 171.185Q342.889 171.069 342.457 170.931Q342.025 170.794 341.6 170.635Q341.175 170.477 340.758 170.298Q340.341 170.118 339.934 169.919Q339.526 169.72 339.129 169.501Q338.732 169.282 338.346 169.043Q337.96 168.805 337.586 168.548Q337.212 168.291 336.851 168.016Q336.49 167.742 336.144 167.449Q335.797 167.157 335.464 166.848Q335.132 166.539 334.815 166.215Q334.499 165.89 334.198 165.55Q333.898 165.21 333.615 164.856Q333.331 164.502 333.065 164.134Q332.8 163.766 332.552 163.386Q332.305 163.006 332.076 162.614Q331.848 162.222 331.639 161.82Q331.43 161.417 331.241 161.005Q331.052 160.592 330.883 160.171Q330.715 159.75 330.567 159.321Q330.419 158.892 330.293 158.457Q330.166 158.021 330.061 157.58Q329.956 157.139 329.872 156.693Q329.789 156.247 329.728 155.797Q329.666 155.348 329.627 154.896Q329.588 154.444 329.571 153.991Q329.553 153.537 329.558 153.084Q329.564 152.63 329.591 152.178Q329.618 151.725 329.668 151.274Q329.717 150.823 329.788 150.375Q329.86 149.927 329.953 149.483Q330.047 149.039 330.161 148.6Q330.276 148.162 330.413 147.729Q330.549 147.296 330.706 146.871Q330.864 146.445 331.042 146.028Q331.22 145.611 331.418 145.203Q331.616 144.795 331.834 144.397Q332.052 143.999 332.289 143.612Q332.526 143.226 332.782 142.851Q333.038 142.477 333.312 142.115Q333.586 141.753 333.877 141.406Q334.168 141.058 334.476 140.725Q334.784 140.392 335.108 140.074Q335.432 139.757 335.771 139.455Q336.11 139.154 336.463 138.869Q336.817 138.585 337.184 138.318Q337.55 138.052 337.93 137.803Q338.31 137.555 338.701 137.325Q339.092 137.096 339.494 136.885Q339.896 136.675 340.308 136.485Q340.72 136.295 341.14 136.125Q341.561 135.955 341.989 135.806Q342.418 135.657 342.853 135.53Q343.288 135.402 343.729 135.296Q344.17 135.189 344.616 135.105Q345.062 135.02 345.511 134.957Q345.96 134.895 346.412 134.854Z"/>
	<path fill="#DE5030" transform="scale(2 2)" d="M259.817 241.193C261.789 241.181 263.769 241.134 265.74 241.193C278.338 245.154 278.105 249.272 283.803 258.308C284.315 261.214 283.937 264.513 283.803 267.471C280.228 279.848 272.82 286.809 259.817 286.841L259.817 286.841C249.543 286.351 239.358 278.365 239.464 267.471C238.794 264.115 238.591 261.658 239.464 258.308C242.865 249.649 247.758 243.279 257.481 241.193C258.256 241.21 259.043 241.261 259.817 241.193Z"/>
	<path fill="#E67350" transform="scale(2 2)" d="M257.481 241.193C258.256 241.21 259.043 241.261 259.817 241.193C259.558 244.483 259.806 247.834 259.814 251.134L259.814 271.004C259.812 273.881 259.38 284.661 259.817 286.841L259.817 286.841C249.543 286.351 239.358 278.365 239.464 267.471C238.794 264.115 238.591 261.658 239.464 258.308C242.865 249.649 247.758 243.279 257.481 241.193Z"/>
	<path fill="#3774D0" transform="scale(2 2)" d="M318.895 244.669Q319.268 246.739 319.929 248.735Q320.589 250.732 321.524 252.616C309.274 258.265 296.244 262.218 283.803 267.471C283.937 264.513 284.315 261.214 283.803 258.308C294.594 253.211 307.586 249.056 318.895 244.669Z"/>
	<path fill="#3774D0" transform="scale(2 2)" d="M420.475 128.051L430.724 128.032C440.53 127.981 450.757 128.59 451.007 140.977C451.387 159.805 451.002 178.721 451.002 197.56L451.023 393.109C451.173 417.355 448.816 417.686 423.403 417.647L324.929 417.649C313.981 417.65 303.017 417.792 292.07 417.65C278.293 440.836 244.929 444.918 226.714 425.065C224.656 422.821 223.126 420.175 221.14 417.876L220.942 417.65C209.098 417.338 197.156 417.646 185.303 417.647L87.5049 417.656C80.1403 417.658 70.8984 419.231 64.996 413.729C58.625 407.789 60.9871 388.619 60.9874 380.35L60.9936 207.914C60.9964 185.394 61.4621 162.764 60.8411 140.256C60.433 125.465 79.015 128.028 88.1463 128.051C89.3121 128.092 90.457 128.114 91.6238 128.051C91.615 134.626 91.2293 141.427 91.6238 147.975C91.9641 155.587 91.6167 163.345 91.6178 170.975L91.6238 362.302C95.685 362.294 99.884 362.054 103.929 362.302L103.929 379.678L205.267 379.67C211.411 379.667 217.824 379.285 223.863 380.564C242.666 384.548 253.963 399.636 257.481 417.65C258.234 414.746 258.771 411.474 259.817 408.688C263.46 404.14 265.928 399.143 270.129 394.95C286.827 378.283 302.294 378.172 324.382 378.186L420.475 378.191L420.475 147.975C420.489 141.339 420.323 134.684 420.475 128.051Z"/>
	<defs>
		<linearGradient id="gradient_0" gradientUnits="userSpaceOnUse" x1="438.38989" y1="265.11502" x2="73.085815" y2="290.93777">
			<stop offset="0" stop-color="#1796F6"/>
			<stop offset="1" stop-color="#48C6FE"/>
		</linearGradient>
	</defs>
	<path fill="url(#gradient_0)" transform="scale(2 2)" d="M420.475 147.975C434.109 147.612 431.216 156.852 431.217 167.336L431.209 374.427C431.209 397.705 435.765 399.017 412.911 399.016L322.067 399.023C305.36 399.01 285.653 394.882 274.819 409.747C270.182 416.111 264.98 420.437 256.467 419.9C241.138 418.934 238.726 402.722 221.847 400.768C217.654 400.283 213.277 400.519 209.054 400.524L102.166 400.568C78.9389 400.618 79.5557 395.848 79.5728 374.334L79.5808 168.075C79.5785 155.38 76.1752 148.2 91.6238 147.975C91.9641 155.587 91.6167 163.345 91.6178 170.975L91.6238 362.302C95.685 362.294 99.884 362.054 103.929 362.302L103.929 379.678L205.267 379.67C211.411 379.667 217.824 379.285 223.863 380.564C242.666 384.548 253.963 399.636 257.481 417.65C258.234 414.746 258.771 411.474 259.817 408.688C263.46 404.14 265.928 399.143 270.129 394.95C286.827 378.283 302.294 378.172 324.382 378.186L420.475 378.191L420.475 147.975Z"/>
	<path fill="#FCFDFD" transform="scale(2 2)" d="M203.218 173.968C220.325 183.623 239.948 188.272 257.481 197.065C257.482 211.755 257.791 226.511 257.481 241.193C247.758 243.279 242.865 249.649 239.464 258.308C228.051 254.604 216.759 250.338 205.486 246.229Q205.494 245.751 205.482 245.273Q205.469 244.796 205.436 244.319Q205.403 243.842 205.348 243.367Q205.294 242.892 205.219 242.42Q205.144 241.948 205.049 241.48Q204.953 241.011 204.838 240.548Q204.722 240.084 204.586 239.626Q204.45 239.168 204.294 238.716Q204.138 238.264 203.962 237.819Q203.787 237.375 203.592 236.938Q203.397 236.502 203.184 236.074Q202.97 235.647 202.738 235.229Q202.506 234.811 202.255 234.404Q202.005 233.997 201.737 233.601Q201.47 233.205 201.185 232.821Q200.9 232.437 200.599 232.066Q200.297 231.695 199.98 231.338Q199.663 230.98 199.33 230.637Q198.998 230.294 198.65 229.966Q198.303 229.637 197.942 229.324Q197.58 229.011 197.206 228.715Q196.831 228.418 196.444 228.138Q196.057 227.858 195.657 227.595Q195.258 227.332 194.848 227.086Q194.438 226.841 194.017 226.614Q193.597 226.387 193.167 226.179Q192.737 225.97 192.298 225.781Q191.859 225.591 191.412 225.421Q190.966 225.251 190.512 225.101Q190.058 224.95 189.598 224.82Q189.139 224.689 188.674 224.579Q188.208 224.469 187.739 224.379Q186.638 224.168 185.52 224.072Q184.403 223.975 183.282 223.993Q182.161 224.011 181.047 224.144Q179.934 224.277 178.84 224.523L178.729 182.566Q181.02 182.845 183.326 182.761Q185.632 182.678 187.897 182.235Q188.982 182.023 190.047 181.729Q191.113 181.436 192.153 181.063Q193.194 180.69 194.203 180.24Q195.213 179.79 196.186 179.265Q197.158 178.741 198.089 178.144Q199.019 177.547 199.902 176.882Q200.785 176.217 201.615 175.488Q202.445 174.758 203.218 173.968Z"/>
	<path fill="#3774D0" transform="scale(2 2)" d="M178.729 182.566Q181.02 182.845 183.326 182.761Q185.632 182.678 187.897 182.235L187.739 224.379Q186.638 224.168 185.52 224.072Q184.403 223.975 183.282 223.993Q182.161 224.011 181.047 224.144Q179.934 224.277 178.84 224.523L178.729 182.566Z"/>
	<path fill="#BCD4ED" transform="scale(2 2)" d="M91.6238 128.051L91.6236 99.3862C91.6179 94.2183 91.2649 88.8526 91.7347 83.7136L91.7752 83.2948L91.5157 82.99L91.8065 83.1809C91.9952 81.0002 102.091 81.9666 103.929 81.977L103.929 362.302C99.884 362.054 95.685 362.294 91.6238 362.302L91.6178 170.975C91.6167 163.345 91.9641 155.587 91.6238 147.975C91.2293 141.427 91.615 134.626 91.6238 128.051C90.457 128.114 89.3121 128.092 88.1463 128.051C89.2921 127.949 90.4736 128.029 91.6238 128.051Z"/>
	<path fill="#2498F5" transform="scale(2 2)" d="M178.729 182.566Q178.153 182.496 177.581 182.403Q177.008 182.31 176.439 182.195Q175.871 182.08 175.307 181.942Q174.744 181.804 174.186 181.644Q173.629 181.484 173.078 181.302Q172.527 181.12 171.984 180.917Q171.44 180.713 170.906 180.488Q170.371 180.263 169.846 180.017Q169.32 179.771 168.805 179.505Q168.29 179.238 167.785 178.952Q167.281 178.665 166.788 178.358Q166.296 178.052 165.816 177.726Q165.336 177.401 164.869 177.056Q164.402 176.712 163.949 176.349Q163.497 175.987 163.058 175.606Q162.62 175.226 162.198 174.829Q161.775 174.431 161.368 174.018Q160.962 173.604 160.572 173.174Q160.182 172.745 159.809 172.3Q159.436 171.856 159.082 171.397Q158.727 170.938 158.391 170.465Q158.054 169.993 157.737 169.507Q157.42 169.021 157.122 168.524Q156.824 168.026 156.546 167.517Q156.268 167.007 156.01 166.488Q155.753 165.968 155.516 165.438Q155.279 164.909 155.063 164.37Q154.848 163.832 154.653 163.285Q154.459 162.738 154.287 162.185Q154.114 161.631 153.964 161.07Q153.814 160.51 153.686 159.944Q153.558 159.378 153.452 158.808Q153.346 158.238 153.264 157.663Q153.181 157.089 153.12 156.512Q153.06 155.935 153.023 155.356Q152.986 154.777 152.972 154.197Q152.957 153.617 152.966 153.037Q152.975 152.457 153.006 151.878Q153.038 151.299 153.092 150.721Q153.147 150.144 153.224 149.569Q153.302 148.994 153.402 148.422Q153.502 147.851 153.624 147.284Q153.747 146.717 153.892 146.155Q154.037 145.593 154.204 145.038Q154.371 144.482 154.559 143.934Q154.748 143.385 154.959 142.845Q155.169 142.304 155.401 141.772Q155.633 141.24 155.885 140.718Q156.138 140.196 156.411 139.684Q156.684 139.172 156.977 138.671Q157.27 138.171 157.582 137.682Q157.895 137.193 158.227 136.717Q158.558 136.242 158.909 135.779Q159.259 135.317 159.627 134.869Q159.996 134.42 160.381 133.987Q160.767 133.554 161.17 133.136Q161.572 132.718 161.991 132.317Q162.41 131.916 162.845 131.531Q163.279 131.147 163.728 130.78Q164.177 130.413 164.641 130.064Q165.104 129.715 165.581 129.384Q166.058 129.054 166.548 128.743Q167.037 128.432 167.539 128.14Q168.04 127.849 168.553 127.577Q169.066 127.305 169.589 127.054Q170.112 126.803 170.644 126.573Q171.177 126.343 171.718 126.134Q172.259 125.926 172.808 125.738Q173.357 125.551 173.913 125.386Q174.47 125.22 175.032 125.077Q175.594 124.934 176.161 124.813Q176.729 124.692 177.3 124.593Q177.872 124.495 178.447 124.419Q179.022 124.344 179.6 124.291Q180.178 124.238 180.757 124.208Q181.337 124.178 181.917 124.171Q182.497 124.164 183.077 124.18Q183.657 124.196 184.235 124.235Q184.814 124.274 185.391 124.336Q185.968 124.398 186.542 124.482Q187.116 124.567 187.686 124.674Q188.256 124.781 188.821 124.911Q189.387 125.041 189.947 125.193Q190.507 125.345 191.06 125.519Q191.613 125.693 192.16 125.889Q192.706 126.084 193.244 126.302Q193.781 126.519 194.31 126.757Q194.839 126.996 195.358 127.255Q195.877 127.514 196.386 127.793Q196.894 128.073 197.391 128.372Q197.888 128.672 198.373 128.99Q198.857 129.309 199.329 129.647Q199.801 129.984 200.259 130.341Q200.717 130.697 201.16 131.071Q201.604 131.445 202.032 131.836Q202.46 132.227 202.873 132.635Q203.286 133.043 203.682 133.467Q204.078 133.891 204.457 134.33Q204.836 134.769 205.197 135.223Q205.558 135.677 205.901 136.145Q206.244 136.612 206.568 137.093Q206.893 137.574 207.198 138.068Q207.503 138.561 207.788 139.067Q208.073 139.572 208.338 140.088Q208.603 140.604 208.847 141.13Q209.092 141.656 209.315 142.191Q209.538 142.727 209.74 143.271Q209.942 143.814 210.123 144.366Q210.303 144.917 210.461 145.475Q210.62 146.033 210.756 146.597Q210.892 147.161 211.006 147.73Q211.119 148.299 211.21 148.872Q211.302 149.445 211.37 150.021Q211.438 150.597 211.484 151.175Q211.529 151.753 211.552 152.333Q211.574 152.913 211.574 153.493Q211.574 154.073 211.55 154.653Q211.527 155.232 211.481 155.811Q211.435 156.389 211.365 156.965Q211.296 157.541 211.205 158.114Q211.113 158.686 210.998 159.255Q210.884 159.824 210.747 160.388Q210.61 160.951 210.451 161.509Q210.292 162.067 210.111 162.618Q209.93 163.169 209.727 163.713Q209.525 164.256 209.301 164.792Q209.077 165.327 208.832 165.852Q208.587 166.378 208.321 166.894Q207.317 168.843 206.034 170.622Q204.751 172.4 203.218 173.968Q202.445 174.758 201.615 175.488Q200.785 176.217 199.902 176.882Q199.019 177.547 198.089 178.144Q197.158 178.741 196.186 179.265Q195.213 179.79 194.203 180.24Q193.194 180.69 192.153 181.063Q191.113 181.436 190.047 181.729Q188.982 182.023 187.897 182.235Q185.632 182.678 183.326 182.761Q181.02 182.845 178.729 182.566Z"/>
	<path fill="#FCFDFD" transform="scale(2 2)" d="M180.038 135.349Q180.482 135.291 180.928 135.254Q181.375 135.218 181.823 135.203Q182.27 135.189 182.718 135.196Q183.166 135.203 183.613 135.232Q184.06 135.262 184.505 135.312Q184.95 135.363 185.392 135.436Q185.834 135.508 186.272 135.602Q186.71 135.696 187.142 135.812Q187.575 135.927 188.002 136.063Q188.428 136.199 188.848 136.356Q189.268 136.513 189.679 136.69Q190.09 136.867 190.493 137.064Q190.895 137.261 191.287 137.478Q191.679 137.694 192.06 137.929Q192.441 138.165 192.81 138.418Q193.18 138.672 193.536 138.943Q193.892 139.214 194.235 139.503Q194.578 139.791 194.906 140.096Q195.234 140.4 195.547 140.721Q195.86 141.041 196.157 141.376Q196.454 141.712 196.735 142.061Q197.015 142.41 197.278 142.773Q197.541 143.136 197.786 143.511Q198.03 143.886 198.257 144.272Q198.483 144.659 198.69 145.056Q198.897 145.453 199.085 145.86Q199.273 146.266 199.44 146.682Q199.608 147.097 199.755 147.52Q199.902 147.943 200.028 148.373Q200.154 148.803 200.259 149.238Q200.364 149.673 200.448 150.113Q200.532 150.553 200.594 150.997Q200.656 151.441 200.697 151.887Q200.737 152.333 200.756 152.78Q200.774 153.228 200.771 153.676Q200.768 154.124 200.743 154.571Q200.718 155.018 200.671 155.463Q200.624 155.909 200.556 156.351Q200.487 156.794 200.397 157.233Q200.307 157.672 200.196 158.105Q200.084 158.539 199.952 158.967Q199.82 159.395 199.667 159.816Q199.514 160.237 199.34 160.65Q199.167 161.063 198.973 161.467Q198.78 161.871 198.567 162.265Q198.354 162.659 198.123 163.042Q197.891 163.426 197.64 163.797Q197.39 164.169 197.122 164.527Q196.854 164.886 196.569 165.231Q196.284 165.577 195.982 165.908Q195.68 166.239 195.363 166.555Q195.045 166.871 194.712 167.171Q194.38 167.471 194.033 167.754Q193.686 168.037 193.326 168.304Q192.966 168.57 192.593 168.818Q192.22 169.066 191.836 169.296Q191.451 169.526 191.056 169.737Q190.661 169.947 190.256 170.139Q189.851 170.33 189.437 170.501Q189.023 170.672 188.601 170.823Q188.179 170.974 187.751 171.104Q187.322 171.234 186.888 171.343Q186.453 171.452 186.014 171.54Q185.575 171.628 185.132 171.694Q184.684 171.761 184.233 171.806Q183.782 171.85 183.33 171.873Q182.877 171.895 182.424 171.895Q181.971 171.896 181.518 171.873Q181.066 171.851 180.615 171.806Q180.164 171.762 179.716 171.695Q179.268 171.628 178.824 171.54Q178.379 171.451 177.94 171.34Q177.5 171.229 177.067 171.097Q176.634 170.965 176.207 170.812Q175.781 170.658 175.363 170.484Q174.945 170.31 174.535 170.115Q174.126 169.921 173.727 169.706Q173.328 169.491 172.94 169.257Q172.552 169.023 172.176 168.77Q171.801 168.517 171.438 168.246Q171.075 167.975 170.725 167.686Q170.376 167.397 170.042 167.092Q169.707 166.786 169.388 166.464Q169.069 166.143 168.767 165.806Q168.464 165.468 168.178 165.117Q167.892 164.765 167.624 164.4Q167.356 164.035 167.107 163.656Q166.857 163.278 166.626 162.888Q166.396 162.498 166.184 162.098Q165.973 161.697 165.782 161.286Q165.591 160.875 165.42 160.455Q165.25 160.036 165.1 159.608Q164.95 159.18 164.822 158.746Q164.693 158.311 164.587 157.871Q164.48 157.431 164.395 156.986Q164.31 156.541 164.247 156.092Q164.184 155.643 164.143 155.192Q164.103 154.741 164.084 154.288Q164.066 153.835 164.07 153.382Q164.074 152.929 164.1 152.477Q164.127 152.025 164.175 151.574Q164.224 151.124 164.295 150.676Q164.366 150.229 164.459 149.785Q164.551 149.342 164.666 148.903Q164.781 148.465 164.917 148.033Q165.053 147.6 165.21 147.176Q165.367 146.751 165.545 146.334Q165.723 145.917 165.922 145.51Q166.12 145.103 166.338 144.706Q166.557 144.308 166.794 143.923Q167.032 143.537 167.288 143.163Q167.544 142.79 167.819 142.429Q168.093 142.069 168.385 141.722Q168.677 141.376 168.986 141.044Q169.294 140.712 169.619 140.396Q169.944 140.08 170.284 139.78Q170.623 139.481 170.978 139.198Q171.332 138.916 171.7 138.651Q172.067 138.386 172.448 138.14Q172.828 137.894 173.22 137.667Q173.612 137.439 174.015 137.232Q174.418 137.024 174.83 136.837Q175.243 136.65 175.664 136.483Q176.085 136.316 176.514 136.17Q176.943 136.024 177.379 135.9Q177.815 135.775 178.256 135.672Q178.697 135.57 179.143 135.489Q179.589 135.408 180.038 135.349Z"/>
	<path fill="#2498F5" transform="scale(2 2)" d="M178.84 224.523Q179.934 224.277 181.047 224.144Q182.161 224.011 183.282 223.993Q184.403 223.975 185.52 224.072Q186.638 224.168 187.739 224.379Q188.208 224.469 188.674 224.579Q189.139 224.689 189.598 224.82Q190.058 224.95 190.512 225.1Q190.966 225.251 191.412 225.421Q191.859 225.591 192.298 225.781Q192.737 225.97 193.167 226.179Q193.597 226.387 194.017 226.614Q194.438 226.841 194.848 227.086Q195.258 227.332 195.657 227.595Q196.057 227.858 196.444 228.138Q196.831 228.418 197.206 228.715Q197.58 229.011 197.942 229.324Q198.303 229.637 198.65 229.966Q198.998 230.294 199.33 230.637Q199.663 230.98 199.98 231.338Q200.297 231.695 200.599 232.066Q200.9 232.437 201.185 232.821Q201.47 233.205 201.737 233.601Q202.005 233.997 202.255 234.404Q202.506 234.811 202.738 235.229Q202.97 235.647 203.184 236.074Q203.397 236.502 203.592 236.938Q203.787 237.375 203.962 237.819Q204.138 238.264 204.294 238.716Q204.45 239.168 204.586 239.626Q204.722 240.084 204.838 240.548Q204.953 241.011 205.049 241.48Q205.144 241.948 205.219 242.42Q205.294 242.892 205.348 243.367Q205.403 243.842 205.436 244.319Q205.469 244.796 205.482 245.273Q205.494 245.751 205.486 246.229Q205.466 247.363 205.329 248.488Q205.192 249.613 204.939 250.718Q204.686 251.823 204.321 252.897Q203.955 253.97 203.48 254.999Q203.286 255.419 203.075 255.83Q202.864 256.241 202.636 256.643Q202.408 257.044 202.163 257.436Q201.918 257.828 201.656 258.209Q201.395 258.59 201.117 258.96Q200.84 259.329 200.548 259.687Q200.255 260.045 199.947 260.389Q199.64 260.734 199.318 261.066Q198.996 261.398 198.661 261.715Q198.325 262.033 197.976 262.336Q197.628 262.64 197.267 262.928Q196.905 263.216 196.532 263.489Q196.159 263.762 195.775 264.018Q195.391 264.275 194.996 264.515Q194.601 264.756 194.197 264.979Q193.792 265.202 193.379 265.408Q192.965 265.614 192.543 265.803Q192.121 265.991 191.692 266.161Q191.262 266.332 190.826 266.484Q190.389 266.636 189.947 266.769Q189.504 266.903 189.057 267.018Q188.609 267.132 188.157 267.228Q187.705 267.323 187.249 267.4Q186.793 267.476 186.335 267.534Q185.876 267.591 185.416 267.628Q184.955 267.666 184.493 267.684Q184.032 267.702 183.57 267.701Q183.107 267.7 182.646 267.679Q182.184 267.658 181.724 267.617Q181.264 267.577 180.805 267.517Q180.347 267.458 179.892 267.378Q179.437 267.299 178.985 267.201Q178.533 267.103 178.086 266.985Q177.64 266.868 177.198 266.732Q176.756 266.596 176.321 266.441Q175.885 266.287 175.457 266.114Q175.028 265.941 174.607 265.75Q174.186 265.559 173.774 265.351Q173.362 265.142 172.958 264.916Q172.555 264.691 172.162 264.448Q171.768 264.205 171.386 263.946Q171.003 263.688 170.632 263.413Q170.26 263.138 169.901 262.847Q169.541 262.557 169.194 262.252Q168.847 261.946 168.514 261.627Q168.18 261.307 167.86 260.973Q167.54 260.64 167.235 260.293Q166.929 259.946 166.639 259.587Q166.348 259.228 166.073 258.856Q165.798 258.485 165.539 258.102Q165.28 257.72 165.037 257.326Q164.794 256.933 164.568 256.53Q164.343 256.127 164.134 255.715Q163.925 255.302 163.734 254.882Q163.543 254.461 163.37 254.032Q163.197 253.604 163.042 253.168Q162.887 252.733 162.751 252.291Q162.615 251.85 162.497 251.403Q162.38 250.956 162.281 250.504Q162.183 250.053 162.103 249.598Q162.024 249.142 161.964 248.684Q161.904 248.226 161.863 247.766Q161.823 247.305 161.802 246.844Q161.781 246.382 161.779 245.92Q161.777 245.458 161.795 244.996Q161.813 244.534 161.851 244.074Q161.888 243.613 161.945 243.155Q162.002 242.696 162.078 242.24Q162.155 241.784 162.25 241.332Q162.346 240.88 162.46 240.432Q162.574 239.985 162.708 239.542Q162.841 239.1 162.993 238.663Q163.145 238.227 163.315 237.797Q163.485 237.368 163.673 236.946Q163.862 236.524 164.067 236.11Q164.273 235.696 164.496 235.291Q164.72 234.887 164.96 234.492Q165.2 234.097 165.456 233.713Q165.713 233.328 165.985 232.955Q166.258 232.582 166.546 232.221Q166.834 231.859 167.137 231.511Q167.44 231.162 167.758 230.826Q168.076 230.49 168.407 230.168Q168.739 229.846 169.083 229.539Q169.428 229.231 169.786 228.938Q170.143 228.645 170.513 228.368Q170.882 228.091 171.263 227.829Q171.644 227.567 172.036 227.322Q172.427 227.077 172.829 226.849Q173.231 226.62 173.642 226.409Q174.053 226.197 174.472 226.004Q174.892 225.81 175.319 225.634Q175.747 225.458 176.181 225.301Q176.615 225.143 177.056 225.004Q177.497 224.865 177.943 224.745Q178.389 224.624 178.84 224.523Z"/>
	<path fill="#3774D0" transform="scale(2 2)" d="M205.486 246.229C216.759 250.338 228.051 254.604 239.464 258.308C238.591 261.658 238.794 264.115 239.464 267.471C226.926 264.041 215.505 258.725 203.48 254.999Q203.955 253.97 204.321 252.897Q204.686 251.823 204.939 250.718Q205.192 249.613 205.329 248.488Q205.466 247.363 205.486 246.229Z"/>
	<path fill="#BCD4ED" transform="scale(2 2)" d="M151.044 291.872L194.363 291.862C198.748 291.861 216.124 290.461 219.148 293.047C220.934 294.575 221.021 296.972 219.326 298.62C216.949 300.932 209.094 300.111 205.661 300.097L146.865 300.086C144.246 300.09 139.122 300.957 137.025 298.952C135.417 297.414 135.641 294.424 137.237 292.959C139.144 291.21 148.072 291.868 151.044 291.872Z"/>
	<path fill="#BCD4ED" transform="scale(2 2)" d="M140.232 316.528L190.784 316.525C199.218 316.518 207.83 316.102 216.234 316.534C221.9 316.824 222.073 323.609 216.311 324.511L165.851 324.522C157.453 324.522 148.156 324.964 139.912 324.436C134.892 324.115 134.494 317.102 140.232 316.528Z"/>
	<path fill="#BCD4ED" transform="scale(2 2)" d="M168.632 340.616C184.901 340.617 201.241 340.284 217.501 340.616C219.979 342.022 221.772 345.249 219.402 347.714C217.946 349.229 192.829 348.541 189.019 348.537L154.531 348.504C151.05 348.496 140.192 349.909 137.58 347.675C134.837 345.329 136.124 341.245 139.564 340.784C142.788 340.352 146.368 340.627 149.63 340.624L168.632 340.616Z"/>
</svg>
