<?xml version="1.0" encoding="utf-8" ?>
<svg xmlns="http://www.w3.org/2000/svg" xmlns:xlink="http://www.w3.org/1999/xlink" width="1024" height="1024">
	<path fill="#FDFDFD" transform="scale(2 2)" d="M338.035 121.647C340.517 87.6165 387.275 86.6114 391.174 120.377C397.513 120.181 403.761 120.136 410.101 120.377C414.184 120.181 420.425 119.106 423.728 122.077C428.92 126.748 426.353 142.414 427.011 149.39C427.661 149.508 428.525 149.475 428.934 150C447.179 149.944 451.975 151.747 451.933 171.36L451.939 376.261C451.84 390.086 443.436 390.482 432.316 390.394L318.477 390.345C313.211 390.34 307.093 389.278 302.245 391.676C294.52 395.597 287.053 400.162 279.517 404.436C251.423 420.37 243.609 410.95 218.704 396.888C215.566 395.116 212.401 393.07 209.014 391.832L208.581 391.676C205.05 389.183 198.532 390.35 194.439 390.351L119.196 390.36C110.013 390.362 100.741 390.664 91.5703 390.361C81.7416 389.98 61.2936 394.433 59.8455 379.488C59.6104 377.061 59.7656 374.51 59.7647 372.068L59.6504 164.776C59.5789 148.387 73.3211 149.96 85.6338 150L85.602 137.348C85.412 116.391 90.6411 120.397 108.029 120.377C111.64 120.085 115.39 120.401 119.022 120.398L204.216 120.558C223.454 120.643 236.283 117.568 247.162 137.801C248.604 140.484 249.8 143.067 251.924 145.303C255.051 145.789 258.373 146.031 261.484 145.303C262.784 144.148 264.562 138.683 265.603 136.716C270.123 128.176 279.728 121.76 289.22 120.727C295.19 120.077 335.168 119.366 338.035 121.647Z"/>
	<path fill="#D7E7F9" transform="scale(2 2)" d="M338.035 121.647C340.517 87.6165 387.275 86.6114 391.174 120.377C397.513 120.181 403.761 120.136 410.101 120.377C414.184 120.181 420.425 119.106 423.728 122.077C428.92 126.748 426.353 142.414 427.011 149.39C427.661 149.508 428.525 149.475 428.934 150C428.205 149.918 427.54 149.754 426.864 150.115C427.359 166.112 427.011 182.194 427.01 198.202L427.027 350.481C427.037 357.214 427.292 368.878 417.067 368.534C412.841 368.725 414.571 360.506 414.562 356.51C411.139 356.236 407.574 356.493 404.131 356.499L314.936 356.513C293.555 356.447 277.293 354.26 261.484 369.964C261.303 359.586 261.423 349.188 261.418 338.808L261.37 244.929C261.363 239.322 261.061 233.655 261.288 228.059Q261.96 227.997 262.628 227.901Q263.296 227.805 263.958 227.674Q264.62 227.543 265.274 227.378Q265.928 227.212 266.573 227.013Q267.218 226.815 267.852 226.582Q268.485 226.35 269.106 226.085Q269.727 225.821 270.333 225.524Q270.939 225.227 271.529 224.899Q272.118 224.572 272.691 224.214Q273.263 223.856 273.815 223.468Q274.368 223.081 274.9 222.666Q275.431 222.25 275.941 221.808Q276.45 221.365 276.936 220.897Q277.422 220.429 277.883 219.936Q278.344 219.443 278.778 218.926Q279.213 218.41 279.62 217.872Q280.54 216.656 281.311 215.341Q282.082 214.027 282.693 212.63Q283.305 211.234 283.749 209.776Q284.194 208.318 284.464 206.818Q284.75 205.235 284.838 203.628Q284.926 202.021 284.814 200.416Q284.703 198.811 284.395 197.232Q284.086 195.653 283.585 194.124Q283.087 192.604 282.405 191.156Q281.724 189.709 280.87 188.356Q280.017 187.003 279.003 185.766Q277.99 184.528 276.832 183.424Q276.064 182.692 275.239 182.024Q274.413 181.357 273.536 180.76Q272.659 180.162 271.736 179.638Q270.813 179.114 269.851 178.667Q268.888 178.22 267.892 177.853Q266.897 177.487 265.874 177.202Q264.852 176.918 263.809 176.718Q262.767 176.518 261.712 176.404C261.366 175.294 261.642 148.113 261.905 145.702L261.484 145.303C262.784 144.148 264.562 138.683 265.603 136.716C270.123 128.176 279.728 121.76 289.22 120.727C295.19 120.077 335.168 119.366 338.035 121.647Z"/>
	<path fill="#D7E7F9" transform="scale(2 2)" d="M261.484 145.303C262.784 144.148 264.562 138.683 265.603 136.716C270.123 128.176 279.728 121.76 289.22 120.727C295.19 120.077 335.168 119.366 338.035 121.647C338.214 125.25 339.043 129.001 340.385 132.351C334.616 137.724 328.023 142.381 321.883 147.34L276.832 183.424Q276.064 182.692 275.239 182.024Q274.413 181.357 273.536 180.76Q272.659 180.162 271.736 179.638Q270.813 179.114 269.851 178.667Q268.888 178.22 267.892 177.853Q266.897 177.487 265.874 177.202Q264.852 176.918 263.809 176.718Q262.767 176.518 261.712 176.404C261.366 175.294 261.642 148.113 261.905 145.702L261.484 145.303Z"/>
	<path fill="#1484F9" transform="scale(2 2)" d="M338.035 121.647C340.517 87.6165 387.275 86.6114 391.174 120.377C391.483 142.481 372.747 151.988 353.31 145.819C351.218 144.883 349.327 143.75 347.385 142.542C347.233 141.747 341.687 135.361 340.385 132.351C339.043 129.001 338.214 125.25 338.035 121.647Z"/>
	<path fill="#5DCBFD" transform="scale(2 2)" d="M362.295 108.705Q362.614 108.641 362.937 108.592Q363.259 108.543 363.583 108.511Q363.907 108.478 364.232 108.461Q364.557 108.444 364.883 108.443Q365.209 108.442 365.534 108.457Q365.86 108.472 366.184 108.503Q366.508 108.534 366.831 108.581Q367.153 108.628 367.473 108.69Q367.793 108.753 368.109 108.831Q368.425 108.909 368.737 109.003Q369.049 109.096 369.356 109.205Q369.664 109.313 369.965 109.437Q370.266 109.561 370.561 109.699Q370.856 109.837 371.144 109.989Q371.432 110.142 371.712 110.308Q371.992 110.475 372.264 110.655Q372.535 110.834 372.798 111.027Q373.06 111.22 373.313 111.426Q373.566 111.632 373.808 111.849Q374.05 112.067 374.282 112.296Q374.513 112.526 374.733 112.766Q374.953 113.006 375.161 113.257Q375.369 113.508 375.564 113.769Q375.759 114.03 375.941 114.3Q376.124 114.57 376.293 114.848Q376.461 115.127 376.616 115.413Q376.771 115.7 376.912 115.994Q377.053 116.287 377.179 116.588Q377.306 116.888 377.417 117.194Q377.528 117.5 377.625 117.812Q377.721 118.123 377.802 118.438Q377.883 118.754 377.948 119.073Q378.013 119.392 378.063 119.714Q378.113 120.036 378.147 120.36Q378.18 120.684 378.198 121.009Q378.216 121.335 378.218 121.66Q378.22 121.986 378.206 122.312Q378.192 122.637 378.162 122.961Q378.133 123.286 378.087 123.608Q378.041 123.931 377.98 124.251Q377.918 124.571 377.841 124.887Q377.764 125.204 377.672 125.516Q377.579 125.828 377.471 126.136Q377.364 126.443 377.241 126.745Q377.119 127.047 376.981 127.342Q376.844 127.638 376.693 127.926Q376.541 128.215 376.376 128.495Q376.21 128.776 376.031 129.048Q375.852 129.32 375.66 129.583Q375.468 129.846 375.263 130.1Q375.059 130.353 374.842 130.596Q374.625 130.839 374.396 131.071Q374.168 131.304 373.928 131.524Q373.688 131.745 373.438 131.953Q373.188 132.162 372.928 132.358Q372.668 132.554 372.399 132.738Q372.129 132.921 371.851 133.091Q371.573 133.26 371.287 133.416Q371.001 133.572 370.708 133.714Q370.415 133.856 370.115 133.983Q369.815 134.11 369.509 134.223Q369.203 134.335 368.892 134.432Q368.581 134.53 368.266 134.612Q367.951 134.694 367.632 134.76Q367.312 134.827 366.989 134.878Q366.665 134.928 366.34 134.963Q366.015 134.998 365.688 135.017Q365.362 135.036 365.035 135.039Q364.708 135.042 364.381 135.028Q364.054 135.015 363.728 134.986Q363.402 134.956 363.078 134.911Q362.754 134.866 362.433 134.804Q362.112 134.743 361.794 134.666Q361.476 134.589 361.162 134.497Q360.848 134.404 360.539 134.297Q360.231 134.189 359.927 134.066Q359.624 133.943 359.327 133.806Q359.031 133.668 358.741 133.516Q358.451 133.364 358.17 133.198Q357.888 133.032 357.615 132.852Q357.341 132.672 357.077 132.479Q356.813 132.286 356.559 132.081Q356.304 131.875 356.06 131.657Q355.816 131.439 355.583 131.209Q355.351 130.979 355.129 130.739Q354.908 130.498 354.699 130.246Q354.49 129.995 354.293 129.733Q354.096 129.472 353.913 129.201Q353.729 128.93 353.559 128.651Q353.389 128.371 353.233 128.084Q353.077 127.796 352.936 127.501Q352.794 127.207 352.667 126.905Q352.54 126.604 352.428 126.296Q352.316 125.989 352.219 125.677Q352.122 125.364 352.041 125.047Q351.96 124.73 351.894 124.41Q351.828 124.09 351.779 123.766Q351.729 123.443 351.695 123.118Q351.661 122.792 351.643 122.466Q351.625 122.139 351.624 121.812Q351.622 121.485 351.636 121.158Q351.65 120.831 351.681 120.505Q351.711 120.18 351.758 119.856Q351.804 119.532 351.866 119.211Q351.928 118.89 352.006 118.572Q352.084 118.254 352.178 117.941Q352.271 117.627 352.38 117.319Q352.489 117.01 352.613 116.707Q352.737 116.405 352.875 116.108Q353.014 115.812 353.167 115.523Q353.32 115.234 353.487 114.952Q353.654 114.671 353.834 114.398Q354.015 114.126 354.209 113.862Q354.403 113.599 354.609 113.345Q354.816 113.091 355.034 112.848Q355.253 112.605 355.484 112.373Q355.714 112.14 355.956 111.92Q356.197 111.699 356.449 111.491Q356.702 111.282 356.964 111.087Q357.226 110.891 357.497 110.708Q357.769 110.526 358.049 110.357Q358.329 110.188 358.617 110.033Q358.905 109.877 359.2 109.737Q359.495 109.596 359.797 109.47Q360.099 109.344 360.407 109.233Q360.714 109.122 361.027 109.026Q361.34 108.93 361.657 108.85Q361.974 108.77 362.295 108.705Z"/>
	<path fill="#1484F9" transform="scale(2 2)" d="M351.469 239.777C353.658 234.933 359.666 230.286 364.553 228.42C385.807 220.305 408.502 242.058 398.044 263.647C392.595 274.895 381.555 279.913 369.561 278.475C368.528 278.351 366.748 277.828 365.772 278.048C361.807 276 358.484 274.255 355.357 271.005C349.648 265.396 348.344 258.786 347.761 251.279L347.385 250.989C347.486 250.897 350.325 241.837 351.469 239.777Z"/>
	<path fill="#5DCBFD" transform="scale(2 2)" d="M370.741 240.005Q371.055 239.94 371.372 239.891Q371.689 239.842 372.008 239.809Q372.326 239.775 372.647 239.757Q372.967 239.74 373.287 239.738Q373.608 239.736 373.928 239.75Q374.249 239.763 374.568 239.793Q374.887 239.823 375.205 239.868Q375.522 239.913 375.837 239.974Q376.152 240.035 376.463 240.111Q376.774 240.187 377.082 240.278Q377.389 240.37 377.691 240.476Q377.994 240.583 378.291 240.704Q378.588 240.825 378.878 240.961Q379.169 241.096 379.452 241.246Q379.736 241.396 380.011 241.56Q380.287 241.723 380.554 241.9Q380.822 242.077 381.08 242.267Q381.339 242.457 381.587 242.659Q381.836 242.861 382.074 243.076Q382.313 243.29 382.54 243.516Q382.768 243.742 382.984 243.978Q383.201 244.215 383.405 244.462Q383.609 244.709 383.801 244.966Q383.993 245.223 384.172 245.489Q384.351 245.755 384.517 246.029Q384.683 246.304 384.835 246.586Q384.987 246.868 385.125 247.158Q385.263 247.447 385.386 247.743Q385.51 248.039 385.619 248.34Q385.728 248.642 385.821 248.948Q385.915 249.255 385.994 249.566Q386.073 249.877 386.136 250.191Q386.199 250.505 386.247 250.822Q386.295 251.139 386.327 251.458Q386.359 251.777 386.375 252.097Q386.392 252.418 386.392 252.738Q386.393 253.059 386.378 253.379Q386.363 253.699 386.332 254.018Q386.301 254.337 386.254 254.655Q386.208 254.972 386.146 255.286Q386.083 255.601 386.006 255.912Q385.928 256.223 385.836 256.53Q385.743 256.837 385.635 257.139Q385.527 257.441 385.405 257.737Q385.283 258.033 385.146 258.323Q385.009 258.613 384.858 258.896Q384.707 259.179 384.542 259.454Q384.378 259.729 384.2 259.996Q384.022 260.262 383.831 260.52Q383.64 260.777 383.436 261.025Q383.233 261.273 383.018 261.51Q382.802 261.748 382.576 261.975Q382.349 262.201 382.111 262.416Q381.874 262.632 381.626 262.835Q381.378 263.038 381.12 263.229Q380.863 263.42 380.596 263.598Q380.329 263.776 380.054 263.94Q379.779 264.105 379.496 264.256Q379.213 264.407 378.923 264.543Q378.633 264.68 378.337 264.802Q378.041 264.925 377.739 265.032Q377.437 265.14 377.13 265.233Q376.823 265.325 376.512 265.403Q376.201 265.48 375.886 265.542Q375.573 265.604 375.258 265.65Q374.942 265.696 374.625 265.727Q374.307 265.758 373.989 265.773Q373.67 265.788 373.351 265.788Q373.032 265.788 372.714 265.772Q372.395 265.756 372.078 265.724Q371.761 265.692 371.445 265.645Q371.13 265.598 370.817 265.536Q370.504 265.473 370.195 265.396Q369.886 265.318 369.581 265.225Q369.275 265.133 368.975 265.025Q368.675 264.918 368.38 264.796Q368.086 264.674 367.797 264.537Q367.509 264.401 367.228 264.251Q366.947 264.1 366.673 263.936Q366.4 263.772 366.134 263.595Q365.869 263.418 365.613 263.228Q365.357 263.039 365.11 262.836Q364.863 262.634 364.627 262.42Q364.39 262.206 364.165 261.981Q363.939 261.756 363.725 261.52Q363.51 261.284 363.308 261.037Q363.105 260.791 362.915 260.535Q362.724 260.279 362.547 260.014Q362.369 259.749 362.205 259.476Q362.041 259.203 361.89 258.922Q361.739 258.641 361.602 258.353Q361.465 258.065 361.343 257.77Q361.22 257.476 361.112 257.176Q361.004 256.876 360.911 256.571Q360.817 256.266 360.739 255.957Q360.661 255.648 360.598 255.335Q360.535 255.022 360.487 254.707Q360.44 254.392 360.408 254.074Q360.376 253.757 360.359 253.439Q360.342 253.12 360.342 252.801Q360.341 252.482 360.355 252.164Q360.37 251.845 360.4 251.528Q360.43 251.21 360.476 250.895Q360.522 250.579 360.583 250.266Q360.644 249.953 360.721 249.644Q360.797 249.334 360.888 249.029Q360.98 248.723 361.086 248.422Q361.192 248.122 361.313 247.827Q361.434 247.531 361.569 247.243Q361.704 246.954 361.853 246.672Q362.003 246.39 362.165 246.116Q362.328 245.842 362.504 245.576Q362.68 245.31 362.869 245.053Q363.057 244.796 363.259 244.548Q363.46 244.301 363.673 244.063Q363.886 243.826 364.11 243.599Q364.334 243.373 364.57 243.157Q364.805 242.942 365.05 242.738Q365.296 242.535 365.551 242.343Q365.806 242.152 366.07 241.973Q366.334 241.795 366.607 241.629Q366.879 241.464 367.16 241.312Q367.44 241.16 367.727 241.022Q368.015 240.884 368.309 240.76Q368.603 240.636 368.902 240.527Q369.202 240.417 369.506 240.323Q369.811 240.228 370.12 240.149Q370.429 240.069 370.741 240.005Z"/>
	<path fill="#F1A41C" transform="scale(2 2)" d="M344.449 299.101Q344.764 299.605 345.056 300.122Q345.348 300.639 345.616 301.17Q345.884 301.7 346.128 302.242Q346.371 302.784 346.59 303.336Q346.809 303.888 347.002 304.45Q347.195 305.012 347.363 305.582Q347.53 306.152 347.672 306.729Q347.813 307.306 347.928 307.889Q348.043 308.472 348.131 309.059Q348.219 309.647 348.281 310.238Q348.342 310.829 348.377 311.422Q348.411 312.015 348.418 312.609Q348.426 313.203 348.406 313.797Q348.386 314.391 348.34 314.983Q348.293 315.575 348.219 316.165Q348.146 316.754 348.045 317.34Q347.945 317.925 347.818 318.506Q347.691 319.086 347.538 319.66Q347.384 320.234 347.205 320.801Q347.026 321.367 346.821 321.925Q346.616 322.482 346.386 323.03Q346.156 323.578 345.901 324.114Q345.646 324.651 345.367 325.176Q345.088 325.7 344.785 326.211Q344.483 326.723 344.157 327.22Q343.832 327.717 343.484 328.198Q343.136 328.68 342.767 329.145Q342.397 329.61 342.007 330.058Q341.617 330.506 341.206 330.936Q340.796 331.366 340.367 331.776Q339.937 332.187 339.49 332.578Q339.042 332.968 338.577 333.338Q338.112 333.708 337.631 334.056Q337.149 334.404 336.653 334.73Q336.156 335.056 335.645 335.359Q335.134 335.662 334.61 335.941Q334.085 336.221 333.549 336.476Q333.012 336.731 332.465 336.962Q331.917 337.192 331.36 337.398Q330.802 337.603 330.236 337.783Q329.67 337.963 329.096 338.116Q328.522 338.27 327.942 338.397Q327.362 338.525 326.776 338.626Q326.191 338.727 325.601 338.801Q325.012 338.875 324.42 338.922Q323.828 338.969 323.234 338.989Q322.64 339.01 322.046 339.003Q321.452 338.996 320.859 338.962Q320.266 338.928 319.675 338.867Q319.084 338.806 318.496 338.718Q317.909 338.63 317.326 338.516Q316.743 338.402 316.166 338.261Q315.589 338.12 315.018 337.953Q314.448 337.786 313.886 337.593Q313.324 337.4 312.772 337.182Q312.219 336.964 311.677 336.72Q311.135 336.477 310.605 336.21Q310.074 335.942 309.557 335.651Q309.039 335.359 308.535 335.044Q308.031 334.73 307.542 334.392Q307.053 334.055 306.58 333.695Q306.107 333.336 305.651 332.956Q305.195 332.575 304.756 332.174Q304.318 331.773 303.898 331.353Q303.478 330.933 303.078 330.493Q302.678 330.054 302.298 329.597Q301.918 329.141 301.56 328.667Q301.201 328.193 300.865 327.704Q300.528 327.214 300.214 326.71Q299.9 326.205 299.61 325.687Q299.319 325.169 299.052 324.638Q298.786 324.107 298.543 323.565Q298.301 323.022 298.084 322.469Q297.866 321.916 297.675 321.354Q297.483 320.792 297.317 320.221Q297.151 319.651 297.011 319.074Q296.871 318.496 296.757 317.913Q296.644 317.33 296.557 316.742Q296.47 316.154 296.41 315.563Q296.35 314.972 296.317 314.379Q296.284 313.786 296.278 313.192Q296.272 312.598 296.294 312.004Q296.315 311.41 296.363 310.818Q296.411 310.226 296.486 309.637Q296.561 309.047 296.663 308.462Q296.765 307.877 296.894 307.297Q297.022 306.717 297.177 306.143Q297.331 305.57 297.512 305.004Q297.693 304.438 297.899 303.88Q298.105 303.323 298.337 302.776Q298.568 302.229 298.824 301.693Q299.081 301.157 299.361 300.633Q299.641 300.109 299.945 299.599Q300.249 299.088 300.576 298.592Q300.902 298.096 301.251 297.615Q301.6 297.134 301.971 296.67Q302.342 296.206 302.733 295.759Q303.124 295.312 303.536 294.883Q303.947 294.454 304.377 294.045Q304.808 293.635 305.256 293.246Q305.705 292.856 306.171 292.488Q306.637 292.119 307.119 291.772Q307.601 291.425 308.099 291.1Q308.596 290.776 309.108 290.474Q309.62 290.172 310.145 289.894Q310.67 289.616 311.207 289.362Q311.744 289.108 312.292 288.879Q312.84 288.65 313.398 288.446Q313.956 288.242 314.523 288.064Q315.089 287.885 315.664 287.733Q316.238 287.581 316.818 287.455Q317.399 287.329 317.985 287.229Q318.57 287.13 319.16 287.057Q319.75 286.984 320.342 286.939Q320.934 286.893 321.528 286.874Q322.122 286.856 322.716 286.864Q323.31 286.872 323.903 286.908Q324.496 286.943 325.087 287.006Q325.678 287.068 326.265 287.157Q326.852 287.246 327.435 287.362Q328.018 287.478 328.595 287.621Q329.171 287.763 329.741 287.931Q330.311 288.1 330.872 288.294Q331.434 288.488 331.986 288.708Q332.538 288.927 333.079 289.172Q333.621 289.417 334.15 289.685Q334.68 289.954 335.197 290.247Q335.714 290.54 336.217 290.856Q337.462 291.638 338.611 292.555Q339.761 293.472 340.799 294.513Q341.838 295.553 342.754 296.704Q343.669 297.855 344.449 299.101Z"/>
	<path fill="#F5CB0C" transform="scale(2 2)" d="M320.301 299.547Q320.63 299.497 320.961 299.464Q321.292 299.43 321.625 299.412Q321.957 299.395 322.29 299.394Q322.623 299.392 322.955 299.407Q323.288 299.422 323.619 299.453Q323.951 299.485 324.28 299.532Q324.609 299.579 324.936 299.643Q325.263 299.706 325.586 299.785Q325.91 299.864 326.229 299.959Q326.548 300.054 326.862 300.164Q327.176 300.274 327.484 300.4Q327.792 300.525 328.094 300.666Q328.396 300.806 328.691 300.961Q328.985 301.116 329.272 301.285Q329.559 301.454 329.837 301.637Q330.115 301.82 330.384 302.016Q330.653 302.212 330.912 302.421Q331.171 302.63 331.419 302.852Q331.668 303.073 331.905 303.307Q332.142 303.54 332.368 303.784Q332.594 304.029 332.807 304.284Q333.021 304.54 333.222 304.805Q333.423 305.071 333.61 305.345Q333.798 305.62 333.972 305.904Q334.146 306.188 334.306 306.48Q334.466 306.772 334.611 307.071Q334.757 307.37 334.888 307.676Q335.018 307.982 335.134 308.295Q335.25 308.607 335.35 308.924Q335.451 309.241 335.535 309.563Q335.62 309.885 335.689 310.211Q335.758 310.536 335.811 310.865Q335.864 311.194 335.901 311.524Q335.938 311.855 335.959 312.187Q335.979 312.52 335.984 312.852Q335.988 313.185 335.977 313.518Q335.965 313.851 335.937 314.182Q335.909 314.514 335.865 314.844Q335.821 315.174 335.761 315.501Q335.701 315.828 335.625 316.153Q335.549 316.477 335.457 316.797Q335.365 317.117 335.258 317.432Q335.151 317.747 335.028 318.056Q334.906 318.366 334.769 318.669Q334.631 318.972 334.479 319.268Q334.327 319.564 334.161 319.853Q333.995 320.141 333.814 320.421Q333.634 320.701 333.441 320.972Q333.247 321.242 333.041 321.503Q332.834 321.764 332.615 322.015Q332.396 322.266 332.165 322.505Q331.934 322.745 331.692 322.973Q331.449 323.201 331.196 323.417Q330.943 323.633 330.679 323.837Q330.416 324.04 330.143 324.23Q329.87 324.421 329.588 324.598Q329.306 324.774 329.015 324.937Q328.725 325.1 328.427 325.248Q328.129 325.397 327.825 325.531Q327.52 325.664 327.209 325.783Q326.898 325.902 326.581 326.005Q326.265 326.109 325.944 326.197Q325.623 326.285 325.298 326.357Q324.973 326.429 324.645 326.485Q324.313 326.542 323.978 326.582Q323.644 326.623 323.307 326.647Q322.971 326.671 322.634 326.678Q322.297 326.685 321.961 326.676Q321.624 326.666 321.288 326.64Q320.952 326.614 320.617 326.572Q320.283 326.529 319.951 326.47Q319.619 326.411 319.291 326.336Q318.962 326.26 318.638 326.169Q318.314 326.078 317.994 325.97Q317.675 325.863 317.361 325.74Q317.047 325.617 316.74 325.478Q316.432 325.34 316.132 325.187Q315.832 325.033 315.54 324.865Q315.248 324.697 314.964 324.515Q314.681 324.333 314.407 324.137Q314.132 323.941 313.868 323.732Q313.604 323.522 313.351 323.3Q313.097 323.078 312.855 322.844Q312.613 322.61 312.382 322.364Q312.152 322.118 311.934 321.861Q311.716 321.604 311.511 321.336Q311.306 321.069 311.114 320.791Q310.923 320.514 310.745 320.228Q310.568 319.941 310.404 319.646Q310.241 319.352 310.093 319.049Q309.944 318.746 309.811 318.437Q309.677 318.127 309.56 317.812Q309.442 317.496 309.339 317.175Q309.237 316.854 309.151 316.528Q309.065 316.202 308.995 315.872Q308.925 315.543 308.871 315.21Q308.817 314.877 308.78 314.542Q308.743 314.207 308.722 313.871Q308.702 313.534 308.698 313.197Q308.694 312.86 308.707 312.524Q308.719 312.187 308.749 311.851Q308.778 311.515 308.824 311.181Q308.87 310.847 308.932 310.516Q308.994 310.185 309.073 309.857Q309.151 309.529 309.246 309.206Q309.34 308.883 309.451 308.564Q309.561 308.246 309.688 307.933Q309.814 307.621 309.955 307.315Q310.096 307.009 310.253 306.71Q310.409 306.411 310.58 306.121Q310.751 305.83 310.936 305.549Q311.121 305.267 311.319 304.995Q311.518 304.722 311.73 304.46Q311.942 304.198 312.166 303.947Q312.391 303.696 312.628 303.456Q312.864 303.216 313.113 302.988Q313.361 302.76 313.62 302.544Q313.879 302.329 314.149 302.126Q314.418 301.924 314.697 301.735Q314.977 301.547 315.265 301.372Q315.553 301.197 315.849 301.037Q316.146 300.876 316.45 300.731Q316.754 300.585 317.065 300.455Q317.376 300.325 317.693 300.21Q318.009 300.095 318.332 299.996Q318.654 299.897 318.98 299.814Q319.307 299.731 319.637 299.664Q319.968 299.597 320.301 299.547Z"/>
	<path fill="#0F5EF3" transform="scale(2 2)" d="M340.385 132.351C341.687 135.361 347.233 141.747 347.385 142.542C345.549 144.384 343.556 146.026 341.461 147.566C329.032 157.132 316.916 167.095 304.668 176.894L292.233 186.876C289.339 189.196 286.206 191.495 283.585 194.124Q283.087 192.604 282.405 191.156Q281.724 189.709 280.87 188.356Q280.017 187.003 279.003 185.766Q277.99 184.528 276.832 183.424L321.883 147.34C328.023 142.381 334.616 137.724 340.385 132.351Z"/>
	<path fill="#0F5EF3" transform="scale(2 2)" d="M284.464 206.818C291.271 209.489 297.908 213.165 304.482 216.385L336.871 232.219C340.555 234.055 348.083 238.503 351.469 239.777C350.325 241.837 347.486 250.897 347.385 250.989C339.84 247.894 332.551 243.823 325.229 240.228L279.62 217.872Q280.54 216.656 281.311 215.341Q282.082 214.027 282.693 212.63Q283.305 211.234 283.749 209.776Q284.194 208.318 284.464 206.818Z"/>
	<path fill="#0F5EF3" transform="scale(2 2)" d="M355.357 271.005C358.484 274.255 361.807 276 365.772 278.048C358.263 284.349 351.477 293.598 344.449 299.101Q343.669 297.855 342.754 296.704Q341.838 295.553 340.799 294.513Q339.761 293.472 338.611 292.555Q337.462 291.638 336.217 290.856L355.357 271.005Z"/>
	<path fill="#FDFDFD" transform="scale(2 2)" d="M347.385 142.542C349.327 143.75 351.218 144.883 353.31 145.819C351.262 147.995 349.25 145.534 346.832 146.272C345.235 146.759 342.98 149.258 341.461 147.566C343.556 146.026 345.549 144.384 347.385 142.542Z"/>
	<defs>
		<linearGradient id="gradient_0" gradientUnits="userSpaceOnUse" x1="72.714806" y1="333.5799" x2="337.91394" y2="202.64127">
			<stop offset="0" stop-color="#89C3FB"/>
			<stop offset="1" stop-color="#BCDFFB"/>
		</linearGradient>
	</defs>
	<path fill="url(#gradient_0)" transform="scale(2 2)" d="M85.6338 150L85.602 137.348C85.412 116.391 90.6411 120.397 108.029 120.377C97.2888 127.014 100.761 136.508 100.767 148.168L100.747 327.125C100.747 334.304 98.0389 352.165 107.067 354.232C111.204 355.179 125.134 354.624 130.132 354.621L207.787 354.603C224.08 354.608 237.668 356.177 249.981 368.534L250.071 236.508C250.075 233.717 249.625 229.259 250.174 226.65Q251.504 227.126 252.878 227.455Q254.252 227.784 255.654 227.961Q257.056 228.139 258.468 228.163Q259.881 228.188 261.288 228.059C261.061 233.655 261.363 239.322 261.37 244.929L261.418 338.808C261.423 349.188 261.303 359.586 261.484 369.964C277.293 354.26 293.555 356.447 314.936 356.513L404.131 356.499C407.574 356.493 411.139 356.236 414.562 356.51C414.571 360.506 412.841 368.725 417.067 368.534C427.292 368.878 427.037 357.214 427.027 350.481L427.01 198.202C427.011 182.194 427.359 166.112 426.864 150.115C427.54 149.754 428.205 149.918 428.934 150C447.179 149.944 451.975 151.747 451.933 171.36L451.939 376.261C451.84 390.086 443.436 390.482 432.316 390.394L318.477 390.345C313.211 390.34 307.093 389.278 302.245 391.676C294.52 395.597 287.053 400.162 279.517 404.436C251.423 420.37 243.609 410.95 218.704 396.888C215.566 395.116 212.401 393.07 209.014 391.832L208.581 391.676C205.05 389.183 198.532 390.35 194.439 390.351L119.196 390.36C110.013 390.362 100.741 390.664 91.5703 390.361C81.7416 389.98 61.2936 394.433 59.8455 379.488C59.6104 377.061 59.7656 374.51 59.7647 372.068L59.6504 164.776C59.5789 148.387 73.3211 149.96 85.6338 150Z"/>
	<path fill="#1484F9" transform="scale(2 2)" d="M417.067 368.534C427.292 368.878 427.037 357.214 427.027 350.481L427.01 198.202C427.011 182.194 427.359 166.112 426.864 150.115C427.54 149.754 428.205 149.918 428.934 150C447.179 149.944 451.975 151.747 451.933 171.36L451.939 376.261C451.84 390.086 443.436 390.482 432.316 390.394L318.477 390.345C313.211 390.34 307.093 389.278 302.245 391.676C294.52 395.597 287.053 400.162 279.517 404.436C251.423 420.37 243.609 410.95 218.704 396.888C215.566 395.116 212.401 393.07 209.014 391.832L208.581 391.676C205.05 389.183 198.532 390.35 194.439 390.351L119.196 390.36C110.013 390.362 100.741 390.664 91.5703 390.361C93.4579 389.628 88.7441 386.299 88.0907 385.578C84.9121 382.072 85.4027 367.87 85.6338 361.969C91.7299 369.894 96.5833 368.57 105.557 368.55L199.108 368.536C218.987 368.529 230.695 366.626 247.97 377.682C250.849 379.525 253.633 381.538 256.842 382.769C280.092 368.714 279.483 368.515 307.386 368.522L408.077 368.553C410.896 368.576 414.377 369.25 417.067 368.534Z"/>
	<path fill="#0F5EF3" transform="scale(2 2)" d="M208.581 391.676C211.87 388.705 216.372 390.366 220.445 390.379L285.332 390.361C288.981 390.359 300.655 389.101 302.245 391.676C294.52 395.597 287.053 400.162 279.517 404.436C251.423 420.37 243.609 410.95 218.704 396.888C215.566 395.116 212.401 393.07 209.014 391.832L208.581 391.676Z"/>
	<path fill="#0F5EF3" transform="scale(2 2)" d="M91.5703 390.361C81.7416 389.98 61.2936 394.433 59.8455 379.488C59.6104 377.061 59.7656 374.51 59.7647 372.068L59.6504 164.776C59.5789 148.387 73.3211 149.96 85.6338 150L85.6344 338.388C85.6354 346.189 86.0622 354.193 85.6338 361.969C85.4027 367.87 84.9121 382.072 88.0907 385.578C88.7441 386.299 93.4579 389.628 91.5703 390.361Z"/>
	<path fill="#1484F9" transform="scale(2 2)" d="M250.281 177.733Q251.65 177.25 253.065 176.922Q254.48 176.595 255.922 176.427Q257.364 176.259 258.816 176.254Q260.268 176.248 261.712 176.404Q262.767 176.518 263.809 176.718Q264.852 176.918 265.874 177.202Q266.897 177.487 267.892 177.853Q268.888 178.22 269.851 178.667Q270.813 179.114 271.736 179.638Q272.659 180.162 273.536 180.76Q274.413 181.357 275.239 182.024Q276.064 182.692 276.832 183.424Q277.99 184.528 279.003 185.766Q280.017 187.003 280.87 188.356Q281.724 189.709 282.405 191.156Q283.087 192.604 283.585 194.124Q284.086 195.653 284.395 197.232Q284.703 198.811 284.814 200.416Q284.926 202.021 284.838 203.628Q284.75 205.235 284.464 206.818Q284.194 208.318 283.749 209.776Q283.305 211.234 282.693 212.63Q282.082 214.027 281.311 215.341Q280.54 216.656 279.62 217.872Q279.213 218.41 278.778 218.926Q278.344 219.443 277.883 219.936Q277.422 220.429 276.936 220.897Q276.45 221.365 275.941 221.808Q275.431 222.25 274.9 222.666Q274.368 223.081 273.815 223.468Q273.263 223.856 272.691 224.214Q272.118 224.572 271.529 224.899Q270.939 225.227 270.333 225.524Q269.727 225.821 269.106 226.085Q268.485 226.35 267.852 226.582Q267.218 226.815 266.573 227.013Q265.928 227.212 265.274 227.378Q264.62 227.543 263.958 227.674Q263.296 227.805 262.628 227.901Q261.96 227.997 261.288 228.059Q259.881 228.188 258.468 228.163Q257.056 228.139 255.654 227.961Q254.252 227.784 252.878 227.455Q251.504 227.126 250.174 226.65Q249.704 226.482 249.242 226.296Q248.779 226.11 248.324 225.907Q247.869 225.703 247.422 225.482Q246.975 225.261 246.536 225.023Q246.098 224.785 245.669 224.531Q245.241 224.276 244.822 224.006Q244.403 223.735 243.995 223.448Q243.587 223.161 243.191 222.859Q242.794 222.557 242.409 222.24Q242.024 221.923 241.652 221.591Q241.28 221.259 240.92 220.913Q240.561 220.568 240.215 220.208Q239.87 219.849 239.538 219.477Q239.206 219.104 238.889 218.719Q238.572 218.335 238.27 217.938Q237.968 217.541 237.681 217.133Q237.395 216.725 237.124 216.307Q236.853 215.888 236.598 215.459Q236.344 215.03 236.106 214.592Q235.868 214.154 235.647 213.707Q235.427 213.26 235.223 212.804Q235.02 212.349 234.834 211.886Q234.648 211.424 234.48 210.954Q234.312 210.485 234.162 210.009Q234.012 209.533 233.881 209.052Q233.749 208.571 233.637 208.086Q233.524 207.6 233.43 207.11Q233.335 206.621 233.26 206.128Q233.185 205.635 233.129 205.139Q233.072 204.644 233.035 204.147Q232.998 203.649 232.98 203.151Q232.962 202.653 232.963 202.154Q232.964 201.655 232.984 201.157Q233.005 200.659 233.044 200.162Q233.083 199.665 233.142 199.169Q233.2 198.674 233.277 198.182Q233.355 197.689 233.451 197.2Q233.547 196.71 233.662 196.225Q233.777 195.74 233.911 195.26Q234.044 194.779 234.196 194.304Q234.348 193.829 234.518 193.36Q234.688 192.892 234.876 192.43Q235.064 191.968 235.269 191.513Q235.475 191.059 235.698 190.613Q235.921 190.167 236.16 189.73Q236.4 189.292 236.656 188.865Q236.913 188.437 237.185 188.02Q237.458 187.602 237.747 187.195Q238.035 186.788 238.339 186.393Q238.643 185.998 238.961 185.614Q239.28 185.231 239.614 184.86Q239.947 184.489 240.294 184.131Q240.642 183.773 241.002 183.429Q241.363 183.085 241.737 182.755Q242.111 182.425 242.497 182.109Q242.883 181.794 243.281 181.493Q243.679 181.193 244.088 180.908Q244.497 180.623 244.917 180.354Q245.337 180.085 245.767 179.832Q246.197 179.58 246.636 179.344Q247.076 179.108 247.524 178.889Q247.972 178.67 248.428 178.468Q248.884 178.267 249.347 178.083Q249.811 177.899 250.281 177.733Z"/>
	<path fill="#5DCBFD" transform="scale(2 2)" d="M256.479 189.372Q256.799 189.312 257.122 189.267Q257.444 189.223 257.768 189.194Q258.093 189.165 258.418 189.153Q258.744 189.14 259.069 189.143Q259.395 189.146 259.72 189.166Q260.045 189.185 260.369 189.22Q260.692 189.255 261.014 189.306Q261.335 189.357 261.654 189.424Q261.973 189.491 262.288 189.573Q262.603 189.656 262.913 189.753Q263.224 189.851 263.53 189.964Q263.835 190.077 264.134 190.204Q264.434 190.332 264.727 190.474Q265.02 190.617 265.305 190.773Q265.591 190.93 265.868 191.1Q266.146 191.27 266.415 191.454Q266.684 191.638 266.943 191.834Q267.203 192.031 267.452 192.24Q267.702 192.449 267.941 192.671Q268.18 192.892 268.407 193.124Q268.635 193.357 268.851 193.601Q269.068 193.844 269.271 194.098Q269.475 194.352 269.667 194.615Q269.858 194.879 270.036 195.152Q270.214 195.424 270.378 195.705Q270.543 195.986 270.693 196.275Q270.844 196.564 270.98 196.86Q271.116 197.156 271.237 197.458Q271.358 197.76 271.465 198.068Q271.571 198.375 271.662 198.688Q271.754 199.001 271.829 199.317Q271.905 199.634 271.965 199.954Q272.025 200.274 272.069 200.597Q272.114 200.919 272.142 201.244Q272.171 201.568 272.183 201.894Q272.195 202.219 272.192 202.545Q272.188 202.87 272.169 203.195Q272.149 203.52 272.114 203.844Q272.078 204.168 272.027 204.489Q271.976 204.811 271.909 205.13Q271.842 205.448 271.759 205.763Q271.676 206.078 271.578 206.389Q271.48 206.699 271.367 207.005Q271.254 207.31 271.126 207.61Q270.998 207.909 270.856 208.202Q270.713 208.495 270.557 208.78Q270.4 209.065 270.229 209.343Q270.059 209.62 269.875 209.889Q269.691 210.158 269.494 210.417Q269.297 210.676 269.088 210.926Q268.878 211.175 268.657 211.414Q268.435 211.653 268.202 211.88Q267.97 212.108 267.726 212.324Q267.482 212.54 267.228 212.744Q266.974 212.947 266.71 213.138Q266.446 213.329 266.174 213.507Q265.901 213.685 265.62 213.849Q265.338 214.013 265.049 214.163Q264.76 214.314 264.464 214.449Q264.168 214.585 263.866 214.706Q263.564 214.827 263.256 214.934Q262.948 215.04 262.635 215.131Q262.323 215.221 262.006 215.297Q261.689 215.372 261.369 215.432Q261.049 215.492 260.727 215.536Q260.405 215.58 260.081 215.608Q259.757 215.636 259.432 215.648Q259.107 215.66 258.781 215.656Q258.456 215.653 258.131 215.633Q257.807 215.613 257.483 215.577Q257.16 215.542 256.839 215.49Q256.518 215.439 256.2 215.372Q255.881 215.305 255.567 215.222Q255.252 215.139 254.942 215.041Q254.632 214.943 254.327 214.83Q254.022 214.717 253.723 214.589Q253.424 214.461 253.131 214.319Q252.839 214.177 252.554 214.02Q252.269 213.863 251.992 213.693Q251.715 213.523 251.446 213.339Q251.178 213.155 250.919 212.958Q250.66 212.762 250.411 212.553Q250.162 212.343 249.923 212.122Q249.685 211.901 249.457 211.669Q249.23 211.436 249.014 211.193Q248.798 210.949 248.595 210.696Q248.391 210.442 248.2 210.178Q248.01 209.915 247.832 209.643Q247.654 209.37 247.49 209.089Q247.326 208.809 247.176 208.52Q247.026 208.232 246.89 207.936Q246.754 207.64 246.633 207.339Q246.512 207.037 246.405 206.729Q246.299 206.422 246.208 206.11Q246.117 205.797 246.042 205.481Q245.966 205.165 245.906 204.845Q245.846 204.525 245.802 204.203Q245.758 203.881 245.729 203.557Q245.701 203.233 245.688 202.908Q245.676 202.583 245.679 202.257Q245.683 201.932 245.702 201.608Q245.722 201.283 245.757 200.96Q245.792 200.636 245.843 200.315Q245.895 199.994 245.961 199.675Q246.028 199.357 246.111 199.042Q246.193 198.728 246.291 198.418Q246.388 198.107 246.501 197.802Q246.614 197.497 246.742 197.198Q246.869 196.899 247.011 196.606Q247.154 196.314 247.31 196.028Q247.466 195.743 247.636 195.466Q247.806 195.189 247.99 194.92Q248.173 194.652 248.37 194.392Q248.566 194.133 248.775 193.884Q248.984 193.635 249.205 193.396Q249.426 193.157 249.658 192.929Q249.891 192.702 250.134 192.486Q250.377 192.27 250.631 192.066Q250.884 191.862 251.147 191.671Q251.411 191.48 251.683 191.302Q251.955 191.124 252.236 190.96Q252.517 190.796 252.805 190.645Q253.093 190.495 253.389 190.359Q253.684 190.223 253.986 190.101Q254.288 189.98 254.595 189.873Q254.902 189.767 255.215 189.675Q255.527 189.584 255.843 189.508Q256.159 189.432 256.479 189.372Z"/>
	<path fill="#5DCBFD" transform="scale(2 2)" d="M250.281 177.733C249.623 168.083 249.882 154.93 250.139 145.22C250.531 144.963 251.442 145.238 251.924 145.303C255.051 145.789 258.373 146.031 261.484 145.303L261.905 145.702C261.642 148.113 261.366 175.294 261.712 176.404Q260.268 176.248 258.816 176.254Q257.364 176.259 255.922 176.427Q254.48 176.595 253.065 176.922Q251.65 177.25 250.281 177.733Z"/>
	<path fill="#96DCDD" transform="scale(2 2)" d="M119.091 301.237L199.224 301.229C203.347 301.211 210.101 300.295 213.965 301.825C219.589 304.053 217.163 312.108 211.996 313.708C207.442 314.04 202.631 313.725 198.054 313.716L137.972 313.709C133.185 313.708 120.812 314.891 116.827 312.642C111.245 309.493 113.382 302.367 119.091 301.237Z"/>
	<path fill="#96DCDD" transform="scale(2 2)" d="M195.501 196.2C199.726 196.212 209.316 195.526 212.833 196.412C217.159 197.502 218.739 203.296 215.668 206.461C212.849 209.365 206.38 208.351 202.756 208.335L135.875 208.335C131.42 208.316 122.975 208.923 119.015 208.209C111.468 206.847 111.747 197.448 118.181 196.402C120.848 195.968 123.856 196.197 126.559 196.196L195.501 196.2Z"/>
	<path fill="#96DCDD" transform="scale(2 2)" d="M119.091 161.118C122.693 160.873 126.469 161.112 130.089 161.112L153.042 161.112C171.724 161.111 190.505 160.703 209.176 161.137C213.895 161.247 215.845 162.046 217.741 166.707C216.648 169.9 215.377 172.018 211.996 173.269L128.727 173.252C125.035 173.251 119.627 174.318 116.345 172.161C111.433 168.931 113.521 161.744 119.091 161.118Z"/>
	<path fill="#96DCDD" transform="scale(2 2)" d="M117.82 231.203C133.046 230.479 154.093 230.531 169.284 231.251C173.311 231.442 174.641 233.641 175.631 237.453C174.996 240.183 173.759 242.15 171.173 243.487C168.911 243.69 166.558 243.518 164.284 243.502L152.69 243.496C146.709 243.498 121.035 244.509 116.903 242.974C111.502 240.969 112.446 233.206 117.82 231.203Z"/>
	<path fill="#96DCDD" transform="scale(2 2)" d="M119.091 266.032L145.04 266.01C149.44 266.009 154.027 265.712 158.399 266.12C165.519 266.785 166.409 276.438 159.563 278.048C148.886 278.572 129.722 278.858 119.182 277.93C111.477 277.251 111.632 267.038 119.091 266.032Z"/>
	<path fill="#96DCDD" transform="scale(2 2)" d="M181.222 266.032C193.672 266.326 212.031 261.326 217.741 272.282C216.701 274.728 215.375 276.816 212.941 278.048C210.038 278.841 195.417 277.957 190.966 278.057C186.938 278.146 180.121 279.908 177.702 275.435C175.582 271.514 177.688 267.949 181.222 266.032Z"/>
</svg>
